<svg width="63" height="62" viewBox="0 0 63 62" fill="none" xmlns="http://www.w3.org/2000/svg">
<g filter="url(#filter0_ddd_2445_2716)">
<rect x="3.42188" y="2" width="56" height="56" rx="12" fill="#C9DFFF"/>
<g clip-path="url(#clip0_2445_2716)">
<path fill-rule="evenodd" clip-rule="evenodd" d="M11.4219 18.75C11.4219 15.9886 13.6604 13.75 16.4219 13.75H46.4219C49.1833 13.75 51.4219 15.9886 51.4219 18.75V22.5H11.4219V18.75ZM11.4219 26.25H51.4219V41.25C51.4219 44.0114 49.1833 46.25 46.4219 46.25H16.4219C13.6604 46.25 11.4219 44.0114 11.4219 41.25V26.25ZM16.4219 38.75C16.4219 38.0596 16.9815 37.5 17.6719 37.5H21.4219C22.1122 37.5 22.6719 38.0596 22.6719 38.75V40C22.6719 40.6904 22.1122 41.25 21.4219 41.25H17.6719C16.9815 41.25 16.4219 40.6904 16.4219 40V38.75ZM27.6719 38.75C27.6719 38.0596 28.2315 37.5 28.9219 37.5H30.1719C30.8622 37.5 31.4219 38.0596 31.4219 38.75V40C31.4219 40.6904 30.8622 41.25 30.1719 41.25H28.9219C28.2315 41.25 27.6719 40.6904 27.6719 40V38.75Z" fill="#5E5E6B"/>
<mask id="mask0_2445_2716" style="mask-type:luminance" maskUnits="userSpaceOnUse" x="11" y="13" width="41" height="34">
<path fill-rule="evenodd" clip-rule="evenodd" d="M11.4219 18.75C11.4219 15.9886 13.6604 13.75 16.4219 13.75H46.4219C49.1833 13.75 51.4219 15.9886 51.4219 18.75V22.5H11.4219V18.75ZM11.4219 26.25H51.4219V41.25C51.4219 44.0114 49.1833 46.25 46.4219 46.25H16.4219C13.6604 46.25 11.4219 44.0114 11.4219 41.25V26.25ZM16.4219 38.75C16.4219 38.0596 16.9815 37.5 17.6719 37.5H21.4219C22.1122 37.5 22.6719 38.0596 22.6719 38.75V40C22.6719 40.6904 22.1122 41.25 21.4219 41.25H17.6719C16.9815 41.25 16.4219 40.6904 16.4219 40V38.75ZM27.6719 38.75C27.6719 38.0596 28.2315 37.5 28.9219 37.5H30.1719C30.8622 37.5 31.4219 38.0596 31.4219 38.75V40C31.4219 40.6904 30.8622 41.25 30.1719 41.25H28.9219C28.2315 41.25 27.6719 40.6904 27.6719 40V38.75Z" fill="white"/>
</mask>
<g mask="url(#mask0_2445_2716)">
<path d="M51.4219 22.5V23.75H52.6719V22.5H51.4219ZM11.4219 22.5H10.1719V23.75H11.4219V22.5ZM51.4219 26.25H52.6719V25H51.4219V26.25ZM11.4219 26.25V25H10.1719V26.25H11.4219ZM16.4219 12.5C12.9701 12.5 10.1719 15.2982 10.1719 18.75H12.6719C12.6719 16.6789 14.3508 15 16.4219 15V12.5ZM46.4219 12.5H16.4219V15H46.4219V12.5ZM52.6719 18.75C52.6719 15.2982 49.8736 12.5 46.4219 12.5V15C48.493 15 50.1719 16.6789 50.1719 18.75H52.6719ZM52.6719 22.5V18.75H50.1719V22.5H52.6719ZM11.4219 23.75H51.4219V21.25H11.4219V23.75ZM10.1719 18.75V22.5H12.6719V18.75H10.1719ZM51.4219 25H11.4219V27.5H51.4219V25ZM52.6719 41.25V26.25H50.1719V41.25H52.6719ZM46.4219 47.5C49.8736 47.5 52.6719 44.7018 52.6719 41.25H50.1719C50.1719 43.3211 48.493 45 46.4219 45V47.5ZM16.4219 47.5H46.4219V45H16.4219V47.5ZM10.1719 41.25C10.1719 44.7018 12.9701 47.5 16.4219 47.5V45C14.3508 45 12.6719 43.3211 12.6719 41.25H10.1719ZM10.1719 26.25V41.25H12.6719V26.25H10.1719ZM17.6719 36.25C16.2912 36.25 15.1719 37.3692 15.1719 38.75H17.6719V36.25ZM21.4219 36.25H17.6719V38.75H21.4219V36.25ZM23.9219 38.75C23.9219 37.3692 22.8026 36.25 21.4219 36.25V38.75H23.9219ZM23.9219 40V38.75H21.4219V40H23.9219ZM21.4219 42.5C22.8026 42.5 23.9219 41.3808 23.9219 40H21.4219V42.5ZM17.6719 42.5H21.4219V40H17.6719V42.5ZM15.1719 40C15.1719 41.3808 16.2912 42.5 17.6719 42.5V40H15.1719ZM15.1719 38.75V40H17.6719V38.75H15.1719ZM28.9219 36.25C27.5411 36.25 26.4219 37.3692 26.4219 38.75H28.9219V36.25ZM30.1719 36.25H28.9219V38.75H30.1719V36.25ZM32.6719 38.75C32.6719 37.3692 31.5526 36.25 30.1719 36.25V38.75H32.6719ZM32.6719 40V38.75H30.1719V40H32.6719ZM30.1719 42.5C31.5526 42.5 32.6719 41.3808 32.6719 40H30.1719V42.5ZM28.9219 42.5H30.1719V40H28.9219V42.5ZM26.4219 40C26.4219 41.3808 27.5411 42.5 28.9219 42.5V40H26.4219ZM26.4219 38.75V40H28.9219V38.75H26.4219Z" fill="#E0E1E2"/>
</g>
</g>
</g>
<defs>
<filter id="filter0_ddd_2445_2716" x="0.421875" y="0" width="62" height="62" filterUnits="userSpaceOnUse" color-interpolation-filters="sRGB">
<feFlood flood-opacity="0" result="BackgroundImageFix"/>
<feColorMatrix in="SourceAlpha" type="matrix" values="0 0 0 0 0 0 0 0 0 0 0 0 0 0 0 0 0 0 127 0" result="hardAlpha"/>
<feMorphology radius="1" operator="erode" in="SourceAlpha" result="effect1_dropShadow_2445_2716"/>
<feOffset dy="1"/>
<feGaussianBlur stdDeviation="1"/>
<feComposite in2="hardAlpha" operator="out"/>
<feColorMatrix type="matrix" values="0 0 0 0 0 0 0 0 0 0 0 0 0 0 0 0 0 0 0.1 0"/>
<feBlend mode="normal" in2="BackgroundImageFix" result="effect1_dropShadow_2445_2716"/>
<feColorMatrix in="SourceAlpha" type="matrix" values="0 0 0 0 0 0 0 0 0 0 0 0 0 0 0 0 0 0 127 0" result="hardAlpha"/>
<feOffset dy="1"/>
<feGaussianBlur stdDeviation="1.5"/>
<feComposite in2="hardAlpha" operator="out"/>
<feColorMatrix type="matrix" values="0 0 0 0 0 0 0 0 0 0 0 0 0 0 0 0 0 0 0.1 0"/>
<feBlend mode="normal" in2="effect1_dropShadow_2445_2716" result="effect2_dropShadow_2445_2716"/>
<feColorMatrix in="SourceAlpha" type="matrix" values="0 0 0 0 0 0 0 0 0 0 0 0 0 0 0 0 0 0 127 0" result="hardAlpha"/>
<feMorphology radius="1" operator="dilate" in="SourceAlpha" result="effect3_dropShadow_2445_2716"/>
<feOffset/>
<feComposite in2="hardAlpha" operator="out"/>
<feColorMatrix type="matrix" values="0 0 0 0 0 0 0 0 0 0 0 0 0 0 0 0 0 0 0.04 0"/>
<feBlend mode="normal" in2="effect2_dropShadow_2445_2716" result="effect3_dropShadow_2445_2716"/>
<feBlend mode="normal" in="SourceGraphic" in2="effect3_dropShadow_2445_2716" result="shape"/>
</filter>
<clipPath id="clip0_2445_2716">
<rect width="40" height="40" fill="white" transform="translate(11.4219 10)"/>
</clipPath>
</defs>
</svg>
