<svg width="62" height="62" viewBox="0 0 62 62" fill="none" xmlns="http://www.w3.org/2000/svg">
<g filter="url(#filter0_ddd_2445_2662)">
<rect x="3" y="2" width="56" height="56" rx="12" fill="#FFD2D0"/>
<path d="M14.1562 25.7889C14.1562 24.6261 15.0988 23.6836 16.2615 23.6836H22.9794C23.7618 23.6836 24.2708 24.5071 23.9209 25.207L22.8682 27.3122C22.6899 27.6689 22.3254 27.8941 21.9268 27.8941H16.2615C15.0988 27.8941 14.1562 26.9516 14.1562 25.7889Z" fill="#B9BAC0"/>
<path d="M16.2586 24.2109H22.9765C23.3678 24.2109 23.6222 24.6227 23.4473 24.9726L22.3946 27.0779C22.3055 27.2562 22.1233 27.3688 21.9239 27.3688H16.2586C15.3866 27.3688 14.6797 26.6619 14.6797 25.7899C14.6797 24.9179 15.3866 24.2109 16.2586 24.2109Z" stroke="#E0E1E2" stroke-width="1.05263"/>
<path d="M14.1562 34.2107C14.1562 33.048 15.0988 32.1055 16.2615 32.1055H19.4194C20.0008 32.1055 20.472 32.5767 20.472 33.1581V35.2634C20.472 35.8447 20.0008 36.316 19.4194 36.316H16.2615C15.0988 36.316 14.1562 35.3735 14.1562 34.2107Z" fill="#B9BAC0"/>
<path d="M16.2586 32.6328H19.4165C19.7072 32.6328 19.9428 32.8685 19.9428 33.1591V35.2644C19.9428 35.555 19.7072 35.7907 19.4165 35.7907H16.2586C15.3866 35.7907 14.6797 35.0838 14.6797 34.2118C14.6797 33.3398 15.3866 32.6328 16.2586 32.6328Z" stroke="#E0E1E2" stroke-width="1.05263"/>
<path d="M14.1562 42.6326C14.1562 41.4699 15.0988 40.5273 16.2615 40.5273H45.7352C46.8979 40.5273 47.8405 41.4699 47.8405 42.6326C47.8405 43.7953 46.8979 44.7379 45.7352 44.7379H16.2615C15.0988 44.7379 14.1562 43.7953 14.1562 42.6326Z" fill="#B9BAC0"/>
<path d="M16.2586 41.0547H45.7323C46.6043 41.0547 47.3113 41.7616 47.3113 42.6336C47.3113 43.5056 46.6043 44.2126 45.7323 44.2126H16.2586C15.3866 44.2126 14.6797 43.5056 14.6797 42.6336C14.6797 41.7616 15.3866 41.0547 16.2586 41.0547Z" stroke="#E0E1E2" stroke-width="1.05263"/>
<path d="M23.4715 33.2155L22.6043 37.1178C22.4346 37.8816 23.1159 38.5629 23.8797 38.3932L27.782 37.526C30.4457 36.9341 32.8854 35.5949 34.8148 33.6653L46.2916 22.1887C48.3578 20.1224 48.3578 16.7723 46.2916 14.706C44.2253 12.6397 40.8752 12.6397 38.8088 14.706L27.3322 26.1827C25.4026 28.1121 24.0635 30.5518 23.4715 33.2155Z" fill="#5E5E6B"/>
<mask id="mask0_2445_2662" style="mask-type:luminance" maskUnits="userSpaceOnUse" x="22" y="13" width="26" height="26">
<path d="M23.4715 33.2155L22.6043 37.1178C22.4346 37.8816 23.1159 38.5629 23.8797 38.3932L27.782 37.526C30.4457 36.9341 32.8854 35.5949 34.8148 33.6653L46.2916 22.1887C48.3578 20.1224 48.3578 16.7723 46.2916 14.706C44.2253 12.6397 40.8752 12.6397 38.8088 14.706L27.3322 26.1827C25.4026 28.1121 24.0635 30.5518 23.4715 33.2155Z" fill="white"/>
</mask>
<g mask="url(#mask0_2445_2662)">
<path d="M23.6306 37.3441L24.4978 33.4418L22.4426 32.9851L21.5754 36.8875L23.6306 37.3441ZM28.0752 26.9249L39.5519 15.4482L38.0632 13.9596L26.5865 25.4362L28.0752 26.9249ZM24.1068 39.4187L28.009 38.5516L27.5524 36.4964L23.6501 37.3636L24.1068 39.4187ZM35.558 34.4077L47.0346 22.9309L45.546 21.4423L34.0692 32.9189L35.558 34.4077ZM28.009 38.5516C30.8682 37.9162 33.4869 36.4786 35.558 34.4077L34.0692 32.9189C32.2813 34.7069 30.0206 35.9479 27.5524 36.4964L28.009 38.5516ZM45.546 15.4482C47.2011 17.1035 47.2011 19.7871 45.546 21.4423L47.0346 22.9309C49.512 20.4536 49.512 16.437 47.0346 13.9596L45.546 15.4482ZM39.5519 15.4482C41.207 13.793 43.8907 13.793 45.546 15.4482L47.0346 13.9596C44.5572 11.4822 40.5406 11.4822 38.0632 13.9596L39.5519 15.4482ZM24.4978 33.4418C25.0463 30.9736 26.2872 28.7128 28.0752 26.9249L26.5865 25.4362C24.5155 27.5072 23.078 30.126 22.4426 32.9851L24.4978 33.4418ZM21.5754 36.8875C21.2386 38.4032 22.5909 39.7556 24.1068 39.4187L23.6501 37.3636C23.6469 37.3643 23.6448 37.3645 23.6437 37.3646C23.6425 37.3647 23.642 37.3647 23.642 37.3647C23.6423 37.3647 23.6435 37.3645 23.6437 37.3646C23.6438 37.3646 23.6395 37.3638 23.635 37.3591C23.6304 37.3546 23.6292 37.3511 23.6292 37.3512C23.6291 37.3509 23.6293 37.3514 23.6292 37.3512C23.6293 37.3501 23.6299 37.3472 23.6306 37.3441L21.5754 36.8875Z" fill="#E0E1E2"/>
</g>
</g>
<defs>
<filter id="filter0_ddd_2445_2662" x="0" y="0" width="62" height="62" filterUnits="userSpaceOnUse" color-interpolation-filters="sRGB">
<feFlood flood-opacity="0" result="BackgroundImageFix"/>
<feColorMatrix in="SourceAlpha" type="matrix" values="0 0 0 0 0 0 0 0 0 0 0 0 0 0 0 0 0 0 127 0" result="hardAlpha"/>
<feMorphology radius="1" operator="erode" in="SourceAlpha" result="effect1_dropShadow_2445_2662"/>
<feOffset dy="1"/>
<feGaussianBlur stdDeviation="1"/>
<feComposite in2="hardAlpha" operator="out"/>
<feColorMatrix type="matrix" values="0 0 0 0 0 0 0 0 0 0 0 0 0 0 0 0 0 0 0.1 0"/>
<feBlend mode="normal" in2="BackgroundImageFix" result="effect1_dropShadow_2445_2662"/>
<feColorMatrix in="SourceAlpha" type="matrix" values="0 0 0 0 0 0 0 0 0 0 0 0 0 0 0 0 0 0 127 0" result="hardAlpha"/>
<feOffset dy="1"/>
<feGaussianBlur stdDeviation="1.5"/>
<feComposite in2="hardAlpha" operator="out"/>
<feColorMatrix type="matrix" values="0 0 0 0 0 0 0 0 0 0 0 0 0 0 0 0 0 0 0.1 0"/>
<feBlend mode="normal" in2="effect1_dropShadow_2445_2662" result="effect2_dropShadow_2445_2662"/>
<feColorMatrix in="SourceAlpha" type="matrix" values="0 0 0 0 0 0 0 0 0 0 0 0 0 0 0 0 0 0 127 0" result="hardAlpha"/>
<feMorphology radius="1" operator="dilate" in="SourceAlpha" result="effect3_dropShadow_2445_2662"/>
<feOffset/>
<feComposite in2="hardAlpha" operator="out"/>
<feColorMatrix type="matrix" values="0 0 0 0 0 0 0 0 0 0 0 0 0 0 0 0 0 0 0.04 0"/>
<feBlend mode="normal" in2="effect2_dropShadow_2445_2662" result="effect3_dropShadow_2445_2662"/>
<feBlend mode="normal" in="SourceGraphic" in2="effect3_dropShadow_2445_2662" result="shape"/>
</filter>
</defs>
</svg>
