<svg width="63" height="62" viewBox="0 0 63 62" fill="none" xmlns="http://www.w3.org/2000/svg">
<g filter="url(#filter0_ddd_2445_2741)">
<rect x="3.59375" y="2" width="56" height="56" rx="12" fill="#FFD4D4"/>
<g clip-path="url(#clip0_2445_2741)">
<path fill-rule="evenodd" clip-rule="evenodd" d="M19.0938 10C17.0227 10 15.3438 11.6789 15.3438 13.75V46.25C15.3438 48.3211 17.0227 50 19.0938 50H44.0938C46.1649 50 47.8438 48.3211 47.8438 46.25V20L38.9421 11.0984C38.2389 10.3951 37.285 10 36.2905 10H19.0938ZM42.259 42.0399C42.449 41.6599 42.544 41.2249 42.544 40.7349C42.544 39.9249 42.244 39.2849 41.644 38.8149C41.044 38.3449 40.259 38.0149 39.289 37.8249L39.049 37.7799V35.1099C39.449 35.1899 39.774 35.3499 40.024 35.5899C40.274 35.8299 40.424 36.1249 40.474 36.4749H42.334C42.264 35.6049 41.924 34.9149 41.314 34.4049C40.714 33.8849 39.959 33.5749 39.049 33.4749V32.2299H37.924V33.4749C37.454 33.5149 37.014 33.6199 36.604 33.7899C36.194 33.9499 35.839 34.1649 35.539 34.4349C35.239 34.6949 35.004 35.0049 34.834 35.3649C34.664 35.7249 34.579 36.1249 34.579 36.5649C34.579 37.3049 34.834 37.9049 35.344 38.3649C35.864 38.8149 36.609 39.1399 37.579 39.3399L37.924 39.4149V42.2799C37.464 42.2099 37.074 42.0349 36.754 41.7549C36.434 41.4749 36.244 41.0999 36.184 40.6299H34.294C34.384 41.6499 34.764 42.4299 35.434 42.9699C36.114 43.5099 36.944 43.8199 37.924 43.8999V45.0999H39.049V43.8999C39.519 43.8599 39.964 43.7649 40.384 43.6149C40.814 43.4649 41.184 43.2599 41.494 42.9999C41.814 42.7299 42.069 42.4099 42.259 42.0399ZM36.829 37.1349C36.609 36.9649 36.499 36.7149 36.499 36.3849C36.499 36.0449 36.634 35.7649 36.904 35.5449C37.174 35.3149 37.514 35.1649 37.924 35.0949V37.5549C37.424 37.4449 37.059 37.3049 36.829 37.1349ZM40.189 40.1499C40.469 40.3399 40.609 40.6049 40.609 40.9449C40.609 41.3149 40.464 41.6149 40.174 41.8449C39.884 42.0749 39.509 42.2249 39.049 42.2949V39.6549C39.539 39.7849 39.919 39.9499 40.189 40.1499Z" fill="#5E5E6B"/>
<mask id="mask0_2445_2741" style="mask-type:luminance" maskUnits="userSpaceOnUse" x="15" y="10" width="33" height="40">
<path fill-rule="evenodd" clip-rule="evenodd" d="M19.0938 10C17.0227 10 15.3438 11.6789 15.3438 13.75V46.25C15.3438 48.3211 17.0227 50 19.0938 50H44.0938C46.1649 50 47.8438 48.3211 47.8438 46.25V20L38.9421 11.0984C38.2389 10.3951 37.285 10 36.2905 10H19.0938ZM42.259 42.0399C42.449 41.6599 42.544 41.2249 42.544 40.7349C42.544 39.9249 42.244 39.2849 41.644 38.8149C41.044 38.3449 40.259 38.0149 39.289 37.8249L39.049 37.7799V35.1099C39.449 35.1899 39.774 35.3499 40.024 35.5899C40.274 35.8299 40.424 36.1249 40.474 36.4749H42.334C42.264 35.6049 41.924 34.9149 41.314 34.4049C40.714 33.8849 39.959 33.5749 39.049 33.4749V32.2299H37.924V33.4749C37.454 33.5149 37.014 33.6199 36.604 33.7899C36.194 33.9499 35.839 34.1649 35.539 34.4349C35.239 34.6949 35.004 35.0049 34.834 35.3649C34.664 35.7249 34.579 36.1249 34.579 36.5649C34.579 37.3049 34.834 37.9049 35.344 38.3649C35.864 38.8149 36.609 39.1399 37.579 39.3399L37.924 39.4149V42.2799C37.464 42.2099 37.074 42.0349 36.754 41.7549C36.434 41.4749 36.244 41.0999 36.184 40.6299H34.294C34.384 41.6499 34.764 42.4299 35.434 42.9699C36.114 43.5099 36.944 43.8199 37.924 43.8999V45.0999H39.049V43.8999C39.519 43.8599 39.964 43.7649 40.384 43.6149C40.814 43.4649 41.184 43.2599 41.494 42.9999C41.814 42.7299 42.069 42.4099 42.259 42.0399ZM36.829 37.1349C36.609 36.9649 36.499 36.7149 36.499 36.3849C36.499 36.0449 36.634 35.7649 36.904 35.5449C37.174 35.3149 37.514 35.1649 37.924 35.0949V37.5549C37.424 37.4449 37.059 37.3049 36.829 37.1349ZM40.189 40.1499C40.469 40.3399 40.609 40.6049 40.609 40.9449C40.609 41.3149 40.464 41.6149 40.174 41.8449C39.884 42.0749 39.509 42.2249 39.049 42.2949V39.6549C39.539 39.7849 39.919 39.9499 40.189 40.1499Z" fill="white"/>
</mask>
<g mask="url(#mask0_2445_2741)">
<path d="M47.8438 20H49.0938V19.4822L48.7276 19.1161L47.8438 20ZM42.259 42.0399L43.371 42.611L43.377 42.599L42.259 42.0399ZM39.289 37.8249L39.5293 36.5983L39.5194 36.5964L39.289 37.8249ZM39.049 37.7799H37.799V38.8174L38.8186 39.0085L39.049 37.7799ZM39.049 35.1099L39.2941 33.8843L37.799 33.5851V35.1099H39.049ZM40.474 36.4749L39.2365 36.6517L39.3899 37.7249H40.474V36.4749ZM42.334 36.4749V37.7249H43.6885L43.5799 36.3746L42.334 36.4749ZM41.314 34.4049L40.4953 35.3495L40.5036 35.3568L40.5121 35.3639L41.314 34.4049ZM39.049 33.4749H37.799V34.5951L38.9124 34.7175L39.049 33.4749ZM39.049 32.2299H40.299V30.9799H39.049V32.2299ZM37.924 32.2299V30.9799H36.674V32.2299H37.924ZM37.924 33.4749L38.03 34.7204L39.174 34.623V33.4749H37.924ZM36.604 33.7899L37.0584 34.9544L37.0706 34.9496L37.0827 34.9446L36.604 33.7899ZM35.539 34.4349L36.3576 35.3795L36.3665 35.3719L36.3751 35.364L35.539 34.4349ZM35.344 38.3649L34.5068 39.2931L34.5163 39.3018L34.526 39.3101L35.344 38.3649ZM37.579 39.3399L37.8445 38.1184L37.8314 38.1156L37.579 39.3399ZM37.924 39.4149H39.174V38.4075L38.1895 38.1935L37.924 39.4149ZM37.924 42.2799L37.7359 43.5157L39.174 43.7345V42.2799H37.924ZM36.184 40.6299L37.4239 40.4716L37.2845 39.3799H36.184V40.6299ZM34.294 40.6299V39.3799H32.9287L33.0487 40.7397L34.294 40.6299ZM35.434 42.9699L34.6495 43.9432L34.6566 43.9487L35.434 42.9699ZM37.924 43.8999H39.174V42.7477L38.0256 42.6541L37.924 43.8999ZM37.924 45.0999H36.674V46.3499H37.924V45.0999ZM39.049 45.0999V46.3499H40.299V45.0999H39.049ZM39.049 43.8999L38.943 42.6544L37.799 42.7518V43.8999H39.049ZM40.384 43.6149L39.9723 42.4346L39.9635 42.4377L40.384 43.6149ZM41.494 42.9999L42.2972 43.9576L42.3 43.9552L41.494 42.9999ZM36.829 37.1349L36.0646 38.124L36.0752 38.1322L36.086 38.1401L36.829 37.1349ZM36.904 35.5449L37.6935 36.514L37.7041 36.5054L37.7145 36.4965L36.904 35.5449ZM37.924 35.0949H39.174V33.6134L37.7136 33.8628L37.924 35.0949ZM37.924 37.5549L37.6554 38.7757L39.174 39.1099V37.5549H37.924ZM40.189 40.1499L39.4449 41.1544L39.4656 41.1698L39.4871 41.1842L40.189 40.1499ZM39.049 42.2949H37.799V43.7495L39.237 43.5308L39.049 42.2949ZM39.049 39.6549L39.3695 38.4468L37.799 38.03V39.6549H39.049ZM16.5938 13.75C16.5938 12.3693 17.713 11.25 19.0938 11.25V8.75C16.3323 8.75 14.0938 10.9886 14.0938 13.75H16.5938ZM16.5938 46.25V13.75H14.0938V46.25H16.5938ZM19.0938 48.75C17.713 48.75 16.5938 47.6307 16.5938 46.25H14.0938C14.0938 49.0114 16.3323 51.25 19.0938 51.25V48.75ZM44.0938 48.75H19.0938V51.25H44.0938V48.75ZM46.5938 46.25C46.5938 47.6307 45.4745 48.75 44.0938 48.75V51.25C46.8551 51.25 49.0938 49.0114 49.0938 46.25H46.5938ZM46.5938 20V46.25H49.0938V20H46.5938ZM38.0583 11.9822L46.9599 20.8839L48.7276 19.1161L39.826 10.2145L38.0583 11.9822ZM36.2905 11.25C36.9535 11.25 37.5894 11.5134 38.0583 11.9822L39.826 10.2145C38.8883 9.27678 37.6165 8.75 36.2905 8.75V11.25ZM19.0938 11.25H36.2905V8.75H19.0938V11.25ZM41.294 40.7349C41.294 41.0606 41.2317 41.2993 41.1409 41.4809L43.377 42.599C43.6661 42.0205 43.794 41.3891 43.794 40.7349H41.294ZM40.8731 39.799C41.1494 40.0154 41.294 40.2812 41.294 40.7349H43.794C43.794 39.5686 43.3385 38.5545 42.4147 37.8309L40.8731 39.799ZM39.0486 39.0516C39.8806 39.2146 40.4675 39.4812 40.8731 39.799L42.4147 37.8309C41.6204 37.2086 40.6373 36.8153 39.5293 36.5983L39.0486 39.0516ZM38.8186 39.0085L39.0586 39.0535L39.5194 36.5964L39.2794 36.5514L38.8186 39.0085ZM37.799 35.1099V37.7799H40.299V35.1099H37.799ZM40.8896 34.6881C40.4394 34.256 39.8855 34.0025 39.2941 33.8843L38.8037 36.3356C39.0124 36.3774 39.1085 36.4439 39.1582 36.4916L40.8896 34.6881ZM41.7114 36.2981C41.6228 35.6777 41.3454 35.1257 40.8896 34.6881L39.1582 36.4916C39.2025 36.5341 39.2251 36.572 39.2365 36.6517L41.7114 36.2981ZM42.334 35.2249H40.474V37.7249H42.334V35.2249ZM40.5121 35.3639C40.8385 35.6367 41.042 36.0034 41.088 36.5751L43.5799 36.3746C43.4859 35.2065 43.0094 34.1931 42.1158 33.4459L40.5121 35.3639ZM38.9124 34.7175C39.6099 34.7941 40.1154 35.0203 40.4953 35.3495L42.1326 33.4603C41.3125 32.7496 40.308 32.3558 39.1855 32.2324L38.9124 34.7175ZM37.799 32.2299V33.4749H40.299V32.2299H37.799ZM37.924 33.4799H39.049V30.9799H37.924V33.4799ZM39.174 33.4749V32.2299H36.674V33.4749H39.174ZM37.0827 34.9446C37.3666 34.8269 37.6801 34.7502 38.03 34.7204L37.818 32.2294C37.2279 32.2796 36.6612 32.413 36.1251 32.6353L37.0827 34.9446ZM36.3751 35.364C36.5534 35.2036 36.776 35.0645 37.0584 34.9544L36.1495 32.6255C35.6119 32.8353 35.1245 33.1262 34.7027 33.5057L36.3751 35.364ZM35.9643 35.8986C36.0603 35.6954 36.1893 35.5254 36.3576 35.3795L34.7202 33.4902C34.2886 33.8645 33.9476 34.3145 33.7036 34.8311L35.9643 35.8986ZM35.829 36.5649C35.829 36.2899 35.881 36.0749 35.9643 35.8986L33.7036 34.8311C33.4469 35.3749 33.329 35.96 33.329 36.5649H35.829ZM36.1811 37.4368C35.956 37.2336 35.829 36.9819 35.829 36.5649H33.329C33.329 37.628 33.7119 38.5763 34.5068 39.2931L36.1811 37.4368ZM37.8314 38.1156C36.9843 37.941 36.4646 37.6818 36.1619 37.4198L34.526 39.3101C35.2633 39.9481 36.2336 40.3389 37.3265 40.5641L37.8314 38.1156ZM38.1895 38.1935L37.8445 38.1184L37.3134 40.5614L37.6584 40.6364L38.1895 38.1935ZM39.174 42.2799V39.4149H36.674V42.2799H39.174ZM35.9309 42.6956C36.4469 43.1471 37.0635 43.4134 37.7359 43.5157L38.112 41.0441C37.8644 41.0065 37.701 40.9226 37.5771 40.8143L35.9309 42.6956ZM34.944 40.7882C35.0379 41.524 35.3542 42.1911 35.9309 42.6956L37.5771 40.8143C37.5137 40.7588 37.45 40.6759 37.4239 40.4716L34.944 40.7882ZM34.294 41.8799H36.184V39.3799H34.294V41.8799ZM36.2184 41.9966C35.8626 41.71 35.6054 41.271 35.5391 40.52L33.0487 40.7397C33.1625 42.0289 33.6652 43.15 34.6495 43.9432L36.2184 41.9966ZM38.0256 42.6541C37.2586 42.5915 36.6726 42.3574 36.2113 41.991L34.6566 43.9487C35.5554 44.6625 36.6292 45.0484 37.8223 45.1458L38.0256 42.6541ZM39.174 45.0999V43.8999H36.674V45.0999H39.174ZM39.049 43.8499H37.924V46.3499H39.049V43.8499ZM37.799 43.8999V45.0999H40.299V43.8999H37.799ZM39.9635 42.4377C39.6506 42.5495 39.3118 42.623 38.943 42.6544L39.155 45.1454C39.7261 45.0968 40.2773 44.9804 40.8044 44.7921L39.9635 42.4377ZM40.6906 42.0421C40.5103 42.1935 40.2771 42.3283 39.9723 42.4346L40.7956 44.7951C41.3507 44.6015 41.8576 44.3264 42.2972 43.9576L40.6906 42.0421ZM41.147 41.4689C41.033 41.6909 40.8824 41.8805 40.6879 42.0445L42.3 43.9552C42.7455 43.5794 43.105 43.1291 43.371 42.611L41.147 41.4689ZM35.249 36.3849C35.249 37.0209 35.4794 37.6718 36.0646 38.124L37.5933 36.1457C37.6454 36.186 37.695 36.2469 37.7256 36.3165C37.7534 36.3796 37.749 36.412 37.749 36.3849H35.249ZM36.1144 34.5759C35.5613 35.0265 35.249 35.6586 35.249 36.3849H37.749C37.749 36.383 37.7491 36.3913 37.7456 36.4071C37.7421 36.4234 37.7359 36.4428 37.7261 36.4627C37.705 36.5066 37.6834 36.5223 37.6935 36.514L36.1144 34.5759ZM37.7136 33.8628C37.1206 33.964 36.5621 34.194 36.0934 34.5934L37.7145 36.4965C37.7858 36.4358 37.9072 36.3659 38.1344 36.3271L37.7136 33.8628ZM39.174 37.5549V35.0949H36.674V37.5549H39.174ZM36.086 38.1401C36.5281 38.4669 37.0983 38.6531 37.6554 38.7757L38.1925 36.3341C37.986 36.2886 37.8325 36.2424 37.7229 36.2004C37.61 36.157 37.57 36.1282 37.5719 36.1297L36.086 38.1401ZM41.859 40.9449C41.859 40.193 41.5156 39.5395 40.8909 39.1156L39.4871 41.1842C39.4799 41.1794 39.436 41.1457 39.3988 41.0751C39.3615 41.0046 39.359 40.9507 39.359 40.9449H41.859ZM40.9507 42.8242C41.5395 42.3573 41.859 41.6966 41.859 40.9449H39.359C39.357 40.9546 39.359 40.9555 39.359 40.9449C39.3612 40.9347 39.3668 40.92 39.3748 40.9035C39.3827 40.8869 39.3915 40.8743 39.398 40.8662C39.4043 40.8586 39.4064 40.8596 39.398 40.8662L40.9507 42.8242ZM39.237 43.5308C39.8577 43.4362 40.4516 43.2201 40.9507 42.8242L39.398 40.8662C39.317 40.9305 39.1602 41.0136 38.8609 41.0591L39.237 43.5308ZM37.799 39.6549V42.2949H40.299V39.6549H37.799ZM40.933 39.1455C40.4885 38.8161 39.9422 38.5986 39.3695 38.4468L38.7284 40.8631C39.1356 40.9711 39.3495 41.0836 39.4449 41.1544L40.933 39.1455Z" fill="#E0E1E2"/>
</g>
</g>
</g>
<defs>
<filter id="filter0_ddd_2445_2741" x="0.59375" y="0" width="62" height="62" filterUnits="userSpaceOnUse" color-interpolation-filters="sRGB">
<feFlood flood-opacity="0" result="BackgroundImageFix"/>
<feColorMatrix in="SourceAlpha" type="matrix" values="0 0 0 0 0 0 0 0 0 0 0 0 0 0 0 0 0 0 127 0" result="hardAlpha"/>
<feMorphology radius="1" operator="erode" in="SourceAlpha" result="effect1_dropShadow_2445_2741"/>
<feOffset dy="1"/>
<feGaussianBlur stdDeviation="1"/>
<feComposite in2="hardAlpha" operator="out"/>
<feColorMatrix type="matrix" values="0 0 0 0 0 0 0 0 0 0 0 0 0 0 0 0 0 0 0.1 0"/>
<feBlend mode="normal" in2="BackgroundImageFix" result="effect1_dropShadow_2445_2741"/>
<feColorMatrix in="SourceAlpha" type="matrix" values="0 0 0 0 0 0 0 0 0 0 0 0 0 0 0 0 0 0 127 0" result="hardAlpha"/>
<feOffset dy="1"/>
<feGaussianBlur stdDeviation="1.5"/>
<feComposite in2="hardAlpha" operator="out"/>
<feColorMatrix type="matrix" values="0 0 0 0 0 0 0 0 0 0 0 0 0 0 0 0 0 0 0.1 0"/>
<feBlend mode="normal" in2="effect1_dropShadow_2445_2741" result="effect2_dropShadow_2445_2741"/>
<feColorMatrix in="SourceAlpha" type="matrix" values="0 0 0 0 0 0 0 0 0 0 0 0 0 0 0 0 0 0 127 0" result="hardAlpha"/>
<feMorphology radius="1" operator="dilate" in="SourceAlpha" result="effect3_dropShadow_2445_2741"/>
<feOffset/>
<feComposite in2="hardAlpha" operator="out"/>
<feColorMatrix type="matrix" values="0 0 0 0 0 0 0 0 0 0 0 0 0 0 0 0 0 0 0.04 0"/>
<feBlend mode="normal" in2="effect2_dropShadow_2445_2741" result="effect3_dropShadow_2445_2741"/>
<feBlend mode="normal" in="SourceGraphic" in2="effect3_dropShadow_2445_2741" result="shape"/>
</filter>
<clipPath id="clip0_2445_2741">
<rect width="32.5" height="40" fill="white" transform="translate(15.3438 10)"/>
</clipPath>
</defs>
</svg>
