<svg width="63" height="62" viewBox="0 0 63 62" fill="none" xmlns="http://www.w3.org/2000/svg">
<g filter="url(#filter0_ddd_2445_2726)">
<rect x="3.60156" y="2" width="56" height="56" rx="12" fill="#BCD1FF"/>
<g clip-path="url(#clip0_2445_2726)">
<path d="M11.6016 17.5C11.6016 14.7386 13.8401 12.5 16.6016 12.5H35.3516C36.0419 12.5 36.6016 13.0596 36.6016 13.75V46.25C36.6016 46.9404 36.0419 47.5 35.3516 47.5H16.6016C13.8401 47.5 11.6016 45.2614 11.6016 42.5V17.5Z" fill="#5E5E6B"/>
<path d="M12.2266 17.5C12.2266 15.0838 14.1853 13.125 16.6016 13.125H35.3516C35.6967 13.125 35.9766 13.4048 35.9766 13.75V46.25C35.9766 46.5951 35.6967 46.875 35.3516 46.875H16.6016C14.1853 46.875 12.2266 44.9162 12.2266 42.5V17.5Z" stroke="#E0E1E2" stroke-width="1.25"/>
<path d="M51.6016 17.5C51.6016 14.7386 49.3629 12.5 46.6016 12.5H40.3516C39.6612 12.5 39.1016 13.0596 39.1016 13.75V46.25C39.1016 46.9404 39.6612 47.5 40.3516 47.5H46.6016C49.3629 47.5 51.6016 45.2614 51.6016 42.5V17.5Z" fill="#B9BAC0"/>
<path d="M50.9766 17.5C50.9766 15.0838 49.0178 13.125 46.6016 13.125H40.3516C40.0064 13.125 39.7266 13.4048 39.7266 13.75V46.25C39.7266 46.5951 40.0064 46.875 40.3516 46.875H46.6016C49.0178 46.875 50.9766 44.9162 50.9766 42.5V17.5Z" stroke="#E0E1E2" stroke-width="1.25"/>
<path d="M16.2891 42.8125L22.735 33.7138L29.1811 38.913L38.0738 24.7419L46.9141 20.9375" stroke="white" stroke-width="1.875" stroke-linecap="round" stroke-linejoin="round"/>
</g>
</g>
<defs>
<filter id="filter0_ddd_2445_2726" x="0.601562" y="0" width="62" height="62" filterUnits="userSpaceOnUse" color-interpolation-filters="sRGB">
<feFlood flood-opacity="0" result="BackgroundImageFix"/>
<feColorMatrix in="SourceAlpha" type="matrix" values="0 0 0 0 0 0 0 0 0 0 0 0 0 0 0 0 0 0 127 0" result="hardAlpha"/>
<feMorphology radius="1" operator="erode" in="SourceAlpha" result="effect1_dropShadow_2445_2726"/>
<feOffset dy="1"/>
<feGaussianBlur stdDeviation="1"/>
<feComposite in2="hardAlpha" operator="out"/>
<feColorMatrix type="matrix" values="0 0 0 0 0 0 0 0 0 0 0 0 0 0 0 0 0 0 0.1 0"/>
<feBlend mode="normal" in2="BackgroundImageFix" result="effect1_dropShadow_2445_2726"/>
<feColorMatrix in="SourceAlpha" type="matrix" values="0 0 0 0 0 0 0 0 0 0 0 0 0 0 0 0 0 0 127 0" result="hardAlpha"/>
<feOffset dy="1"/>
<feGaussianBlur stdDeviation="1.5"/>
<feComposite in2="hardAlpha" operator="out"/>
<feColorMatrix type="matrix" values="0 0 0 0 0 0 0 0 0 0 0 0 0 0 0 0 0 0 0.1 0"/>
<feBlend mode="normal" in2="effect1_dropShadow_2445_2726" result="effect2_dropShadow_2445_2726"/>
<feColorMatrix in="SourceAlpha" type="matrix" values="0 0 0 0 0 0 0 0 0 0 0 0 0 0 0 0 0 0 127 0" result="hardAlpha"/>
<feMorphology radius="1" operator="dilate" in="SourceAlpha" result="effect3_dropShadow_2445_2726"/>
<feOffset/>
<feComposite in2="hardAlpha" operator="out"/>
<feColorMatrix type="matrix" values="0 0 0 0 0 0 0 0 0 0 0 0 0 0 0 0 0 0 0.04 0"/>
<feBlend mode="normal" in2="effect2_dropShadow_2445_2726" result="effect3_dropShadow_2445_2726"/>
<feBlend mode="normal" in="SourceGraphic" in2="effect3_dropShadow_2445_2726" result="shape"/>
</filter>
<clipPath id="clip0_2445_2726">
<rect width="40" height="40" fill="white" transform="translate(11.6016 10)"/>
</clipPath>
</defs>
</svg>
