<svg width="62" height="62" viewBox="0 0 62 62" fill="none" xmlns="http://www.w3.org/2000/svg">
<g filter="url(#filter0_ddd_4147_2145)">
<rect x="3" y="2" width="56" height="56" rx="12" fill="#D7E6FF"/>
<path d="M37.8248 21.9154L43.3679 17.5091L42.3927 16.293C40.1798 14.3638 37.5155 13.0245 34.647 12.3996C31.7785 11.7746 28.7987 11.8842 25.9838 12.7181C23.1798 13.5651 20.6367 15.1101 18.5929 17.2084C16.5491 19.3067 15.0714 21.8895 14.2984 24.7148C14.2103 25.0468 15.2149 24.427 15.6585 24.5503L23.3195 23.2931C23.3195 23.2931 23.6925 22.9288 23.9099 22.6909C27.3174 18.972 33.0925 18.4844 37.0258 21.651L37.8248 21.9154Z" fill="#EA4335"/>
<path d="M47.5893 24.6296C46.7068 21.4029 44.8994 18.5049 42.3899 16.293L37.0143 21.6392C38.132 22.5461 39.0286 23.6956 39.6358 25.0006C40.243 26.3056 40.5449 27.7318 40.5187 29.171V30.1198C43.1625 30.1198 45.3068 32.2495 45.3068 34.8785C45.3068 37.5017 43.1625 39.6343 40.5187 39.6343L30.9513 39.6255L29.9966 39.7283V47.0927L30.9513 47.2483H40.5187C43.1852 47.2745 45.7895 46.4429 47.9475 44.8763C50.1054 43.3097 51.7027 41.091 52.5037 38.5475C53.2945 36.0075 53.2429 33.28 52.3567 30.7718C51.4706 28.2635 49.7972 26.109 47.5863 24.6296H47.5893Z" fill="#4285F4"/>
<path d="M21.3691 47.2454H30.9424V39.6255H21.3662C20.6847 39.6255 20.012 39.4317 19.3922 39.1526L18.0468 39.5638L14.1899 43.3738L13.855 44.6868C16.0146 46.332 18.6513 47.2291 21.3662 47.2425L21.3691 47.2454Z" fill="#34A853"/>
<path d="M21.3692 22.4911C18.782 22.5019 16.2625 23.3192 14.1617 24.8293C12.0609 26.3393 10.4833 28.467 9.64859 30.9159C8.82271 33.3632 8.78462 36.0079 9.53967 38.478C10.2947 40.9481 11.805 43.1195 13.858 44.6869L19.4099 39.1526C18.4666 38.732 17.6861 38.0153 17.1866 37.1112C16.6872 36.2072 16.496 35.1649 16.6421 34.1425C16.7883 33.12 17.2637 32.173 17.9963 31.445C18.729 30.717 19.679 30.2476 20.7024 30.108C21.726 29.9612 22.7696 30.1497 23.6772 30.6453C24.5848 31.1409 25.3075 31.917 25.7373 32.8575L31.2892 27.3409C30.1195 25.8239 28.6157 24.5971 26.8947 23.756C25.1737 22.9148 23.2848 22.482 21.3692 22.4911Z" fill="#FBBC05"/>
</g>
<defs>
<filter id="filter0_ddd_4147_2145" x="0" y="0" width="62" height="62" filterUnits="userSpaceOnUse" color-interpolation-filters="sRGB">
<feFlood flood-opacity="0" result="BackgroundImageFix"/>
<feColorMatrix in="SourceAlpha" type="matrix" values="0 0 0 0 0 0 0 0 0 0 0 0 0 0 0 0 0 0 127 0" result="hardAlpha"/>
<feMorphology radius="1" operator="erode" in="SourceAlpha" result="effect1_dropShadow_4147_2145"/>
<feOffset dy="1"/>
<feGaussianBlur stdDeviation="1"/>
<feComposite in2="hardAlpha" operator="out"/>
<feColorMatrix type="matrix" values="0 0 0 0 0 0 0 0 0 0 0 0 0 0 0 0 0 0 0.1 0"/>
<feBlend mode="normal" in2="BackgroundImageFix" result="effect1_dropShadow_4147_2145"/>
<feColorMatrix in="SourceAlpha" type="matrix" values="0 0 0 0 0 0 0 0 0 0 0 0 0 0 0 0 0 0 127 0" result="hardAlpha"/>
<feOffset dy="1"/>
<feGaussianBlur stdDeviation="1.5"/>
<feComposite in2="hardAlpha" operator="out"/>
<feColorMatrix type="matrix" values="0 0 0 0 0 0 0 0 0 0 0 0 0 0 0 0 0 0 0.1 0"/>
<feBlend mode="normal" in2="effect1_dropShadow_4147_2145" result="effect2_dropShadow_4147_2145"/>
<feColorMatrix in="SourceAlpha" type="matrix" values="0 0 0 0 0 0 0 0 0 0 0 0 0 0 0 0 0 0 127 0" result="hardAlpha"/>
<feMorphology radius="1" operator="dilate" in="SourceAlpha" result="effect3_dropShadow_4147_2145"/>
<feOffset/>
<feComposite in2="hardAlpha" operator="out"/>
<feColorMatrix type="matrix" values="0 0 0 0 0 0 0 0 0 0 0 0 0 0 0 0 0 0 0.04 0"/>
<feBlend mode="normal" in2="effect2_dropShadow_4147_2145" result="effect3_dropShadow_4147_2145"/>
<feBlend mode="normal" in="SourceGraphic" in2="effect3_dropShadow_4147_2145" result="shape"/>
</filter>
</defs>
</svg>
