<svg width="63" height="62" viewBox="0 0 63 62" fill="none" xmlns="http://www.w3.org/2000/svg">
<g filter="url(#filter0_ddd_2445_2682)">
<rect x="3.79688" y="2" width="56" height="56" rx="12" fill="#FFF1C8"/>
<path d="M14.9531 25.7889C14.9531 24.6261 15.8957 23.6836 17.0584 23.6836H23.7763C24.5587 23.6836 25.0677 24.5071 24.7178 25.207L23.6651 27.3122C23.4868 27.6689 23.1223 27.8941 22.7237 27.8941H17.0584C15.8957 27.8941 14.9531 26.9516 14.9531 25.7889Z" fill="#B9BAC0"/>
<path d="M17.0555 24.2109H23.7734C24.1647 24.2109 24.4191 24.6227 24.2441 24.9726L23.1915 27.0779C23.1024 27.2562 22.9201 27.3688 22.7208 27.3688H17.0555C16.1835 27.3688 15.4766 26.6619 15.4766 25.7899C15.4766 24.9179 16.1835 24.2109 17.0555 24.2109Z" stroke="#E0E1E2" stroke-width="1.05263"/>
<path d="M14.9531 34.2107C14.9531 33.048 15.8957 32.1055 17.0584 32.1055H20.2163C20.7976 32.1055 21.2689 32.5767 21.2689 33.1581V35.2634C21.2689 35.8447 20.7976 36.316 20.2163 36.316H17.0584C15.8957 36.316 14.9531 35.3735 14.9531 34.2107Z" fill="#B9BAC0"/>
<path d="M17.0555 32.6328H20.2134C20.5041 32.6328 20.7397 32.8685 20.7397 33.1591V35.2644C20.7397 35.555 20.5041 35.7907 20.2134 35.7907H17.0555C16.1835 35.7907 15.4766 35.0838 15.4766 34.2118C15.4766 33.3398 16.1835 32.6328 17.0555 32.6328Z" stroke="#E0E1E2" stroke-width="1.05263"/>
<path d="M14.9531 42.6326C14.9531 41.4699 15.8957 40.5273 17.0584 40.5273H46.5321C47.6948 40.5273 48.6373 41.4699 48.6373 42.6326C48.6373 43.7953 47.6948 44.7379 46.5321 44.7379H17.0584C15.8957 44.7379 14.9531 43.7953 14.9531 42.6326Z" fill="#B9BAC0"/>
<path d="M17.0555 41.0547H46.5292C47.4012 41.0547 48.1081 41.7616 48.1081 42.6336C48.1081 43.5056 47.4012 44.2126 46.5292 44.2126H17.0555C16.1835 44.2126 15.4766 43.5056 15.4766 42.6336C15.4766 41.7616 16.1835 41.0547 17.0555 41.0547Z" stroke="#E0E1E2" stroke-width="1.05263"/>
<path d="M24.2684 33.2155L23.4012 37.1178C23.2315 37.8816 23.9128 38.5629 24.6766 38.3932L28.5789 37.526C31.2426 36.9341 33.6822 35.5949 35.6117 33.6653L47.0885 22.1887C49.1547 20.1224 49.1547 16.7723 47.0885 14.706C45.0221 12.6397 41.672 12.6397 39.6057 14.706L28.1291 26.1827C26.1995 28.1121 24.8604 30.5518 24.2684 33.2155Z" fill="#5E5E6B"/>
<mask id="mask0_2445_2682" style="mask-type:luminance" maskUnits="userSpaceOnUse" x="23" y="13" width="26" height="26">
<path d="M24.2684 33.2155L23.4012 37.1178C23.2315 37.8816 23.9128 38.5629 24.6766 38.3932L28.5789 37.526C31.2426 36.9341 33.6822 35.5949 35.6117 33.6653L47.0885 22.1887C49.1547 20.1224 49.1547 16.7723 47.0885 14.706C45.0221 12.6397 41.672 12.6397 39.6057 14.706L28.1291 26.1827C26.1995 28.1121 24.8604 30.5518 24.2684 33.2155Z" fill="white"/>
</mask>
<g mask="url(#mask0_2445_2682)">
<path d="M24.4353 37.3441L25.3024 33.4418L23.2473 32.9851L22.3801 36.8875L24.4353 37.3441ZM28.8799 26.9249L40.3566 15.4482L38.8679 13.9596L27.3912 25.4362L28.8799 26.9249ZM24.9115 39.4187L28.8137 38.5516L28.3571 36.4964L24.4548 37.3636L24.9115 39.4187ZM36.3627 34.4077L47.8393 22.9309L46.3507 21.4423L34.8739 32.9189L36.3627 34.4077ZM28.8137 38.5516C31.6729 37.9162 34.2916 36.4786 36.3627 34.4077L34.8739 32.9189C33.086 34.7069 30.8253 35.9479 28.3571 36.4964L28.8137 38.5516ZM46.3507 15.4482C48.0058 17.1035 48.0058 19.7871 46.3507 21.4423L47.8393 22.9309C50.3167 20.4536 50.3167 16.437 47.8393 13.9596L46.3507 15.4482ZM40.3566 15.4482C42.0117 13.793 44.6954 13.793 46.3507 15.4482L47.8393 13.9596C45.3619 11.4822 41.3453 11.4822 38.8679 13.9596L40.3566 15.4482ZM25.3024 33.4418C25.851 30.9736 27.0919 28.7128 28.8799 26.9249L27.3912 25.4362C25.3202 27.5072 23.8827 30.126 23.2473 32.9851L25.3024 33.4418ZM22.3801 36.8875C22.0433 38.4032 23.3956 39.7556 24.9115 39.4187L24.4548 37.3636C24.4516 37.3643 24.4495 37.3645 24.4483 37.3646C24.4472 37.3647 24.4467 37.3647 24.4467 37.3647C24.447 37.3647 24.4482 37.3645 24.4483 37.3646C24.4484 37.3646 24.4442 37.3638 24.4397 37.3591C24.4351 37.3546 24.4339 37.3511 24.4339 37.3512C24.4338 37.3509 24.434 37.3514 24.4339 37.3512C24.434 37.3501 24.4346 37.3472 24.4353 37.3441L22.3801 36.8875Z" fill="#E0E1E2"/>
</g>
</g>
<defs>
<filter id="filter0_ddd_2445_2682" x="0.796875" y="0" width="62" height="62" filterUnits="userSpaceOnUse" color-interpolation-filters="sRGB">
<feFlood flood-opacity="0" result="BackgroundImageFix"/>
<feColorMatrix in="SourceAlpha" type="matrix" values="0 0 0 0 0 0 0 0 0 0 0 0 0 0 0 0 0 0 127 0" result="hardAlpha"/>
<feMorphology radius="1" operator="erode" in="SourceAlpha" result="effect1_dropShadow_2445_2682"/>
<feOffset dy="1"/>
<feGaussianBlur stdDeviation="1"/>
<feComposite in2="hardAlpha" operator="out"/>
<feColorMatrix type="matrix" values="0 0 0 0 0 0 0 0 0 0 0 0 0 0 0 0 0 0 0.1 0"/>
<feBlend mode="normal" in2="BackgroundImageFix" result="effect1_dropShadow_2445_2682"/>
<feColorMatrix in="SourceAlpha" type="matrix" values="0 0 0 0 0 0 0 0 0 0 0 0 0 0 0 0 0 0 127 0" result="hardAlpha"/>
<feOffset dy="1"/>
<feGaussianBlur stdDeviation="1.5"/>
<feComposite in2="hardAlpha" operator="out"/>
<feColorMatrix type="matrix" values="0 0 0 0 0 0 0 0 0 0 0 0 0 0 0 0 0 0 0.1 0"/>
<feBlend mode="normal" in2="effect1_dropShadow_2445_2682" result="effect2_dropShadow_2445_2682"/>
<feColorMatrix in="SourceAlpha" type="matrix" values="0 0 0 0 0 0 0 0 0 0 0 0 0 0 0 0 0 0 127 0" result="hardAlpha"/>
<feMorphology radius="1" operator="dilate" in="SourceAlpha" result="effect3_dropShadow_2445_2682"/>
<feOffset/>
<feComposite in2="hardAlpha" operator="out"/>
<feColorMatrix type="matrix" values="0 0 0 0 0 0 0 0 0 0 0 0 0 0 0 0 0 0 0.04 0"/>
<feBlend mode="normal" in2="effect2_dropShadow_2445_2682" result="effect3_dropShadow_2445_2682"/>
<feBlend mode="normal" in="SourceGraphic" in2="effect3_dropShadow_2445_2682" result="shape"/>
</filter>
</defs>
</svg>
