<svg width="235" height="165" viewBox="0 0 235 165" fill="none" xmlns="http://www.w3.org/2000/svg">
<path d="M217.896 0.249084C219.992 0.0006404 221.951 0.91781 223.389 2.57428C224.827 4.23113 225.741 6.62502 225.741 9.31354V140.306C225.741 143.006 224.818 145.406 223.37 147.064C221.923 148.72 219.953 149.631 217.849 149.364L158.248 141.819C154.595 141.356 151.782 137.457 151.782 132.76V16.3692C151.782 11.6514 154.621 7.73888 158.295 7.30377L217.896 0.249084Z" stroke="white" stroke-width="0.190827"/>
<path d="M155.27 18.487V123.787C155.27 128.064 157.77 131.644 161.056 132.069L190.958 135.947L213.701 138.897C217.483 139.387 220.767 135.54 220.767 130.615V12.1058C220.767 7.20149 217.512 3.36205 213.743 3.81813L173.11 8.74529L161.098 10.2013C158.25 10.5467 155.982 13.2641 155.411 16.7638C155.319 17.3211 155.272 17.8993 155.272 18.4889L155.27 18.487Z" fill="#F7F0F7"/>
<path d="M173.108 8.74283L220.765 45.9847V12.1033C220.765 7.19905 217.51 3.35961 213.741 3.81569L173.108 8.74283Z" fill="#DDD7DD"/>
<path d="M155.27 18.4869V53.6163L220.765 75.8248V60.1369L155.409 16.7599C155.317 17.3171 155.27 17.8953 155.27 18.485V18.4869Z" fill="#DDD7DD"/>
<path d="M233.899 79.133C234.247 79.133 233.559 79.1194 233.899 79.133L208.257 79.2628L160.597 79.2287C151.929 79.2697 144.945 84.4281 145 90.7549L145.056 145.127H211.176C217.582 145.127 222.763 141.321 222.723 136.648L222.399 97.2047L222.343 90.7549C222.343 79.174 233.899 79.133 233.899 79.133Z" fill="#FAD78B"/>
<path d="M231.084 78.6436V78.8486C231.378 78.7662 231.663 78.6974 231.934 78.6387L231.084 78.6436Z" stroke="#7F5D14"/>
<path d="M196.85 100.477C199.362 100.477 201.401 98.4379 201.401 95.9262C201.401 93.4145 199.362 91.375 196.85 91.375C194.338 91.375 192.299 93.4145 192.299 95.9262C192.299 98.4379 194.338 100.477 196.85 100.477Z" fill="#7FD6C3"/>
<path d="M196.85 100.82C199.546 100.82 201.743 98.6228 201.743 95.9263C201.743 93.2298 199.546 91.033 196.85 91.033C194.153 91.033 191.956 93.2298 191.956 95.9263C191.956 98.6228 194.153 100.82 196.85 100.82ZM196.85 91.7173C199.17 91.7173 201.059 93.6063 201.059 95.9263C201.059 98.2464 199.17 100.135 196.85 100.135C194.53 100.135 192.641 98.2464 192.641 95.9263C192.641 93.6063 194.53 91.7173 196.85 91.7173Z" fill="#01004C"/>
<path d="M158.27 92.9905H186.46C186.652 92.9905 186.802 92.8399 186.802 92.6483C186.802 92.4567 186.652 92.3061 186.46 92.3061H158.27C158.078 92.3061 157.928 92.4567 157.928 92.6483C157.928 92.8399 158.078 92.9905 158.27 92.9905Z" fill="#01004C"/>
<path d="M175.134 96.6302H186.453C186.645 96.6302 186.796 96.4796 186.796 96.288C186.796 96.0964 186.645 95.9458 186.453 95.9458H175.134C174.942 95.9458 174.791 96.0964 174.791 96.288C174.791 96.4796 174.942 96.6302 175.134 96.6302Z" fill="#01004C"/>
<path d="M158.311 96.6302H169.631C169.822 96.6302 169.973 96.4796 169.973 96.288C169.973 96.0964 169.822 95.9458 169.631 95.9458H158.311C158.119 95.9458 157.969 96.0964 157.969 96.288C157.969 96.4796 158.119 96.6302 158.311 96.6302Z" fill="#01004C"/>
<path d="M174.894 101.757H186.213C186.405 101.757 186.556 101.606 186.556 101.415C186.556 101.223 186.405 101.073 186.213 101.073H174.894C174.702 101.073 174.551 101.223 174.551 101.415C174.551 101.606 174.702 101.757 174.894 101.757Z" fill="#01004C"/>
<path d="M196.849 115.923C199.272 115.923 201.236 113.959 201.236 111.536C201.236 109.113 199.272 107.149 196.849 107.149C194.426 107.149 192.462 109.113 192.462 111.536C192.462 113.959 194.426 115.923 196.849 115.923Z" fill="#2AAFEB"/>
<path d="M196.85 116.265C199.457 116.265 201.579 114.144 201.579 111.536C201.579 108.929 199.457 106.807 196.85 106.807C194.242 106.807 192.121 108.929 192.121 111.536C192.121 114.144 194.242 116.265 196.85 116.265ZM196.85 107.485C199.081 107.485 200.894 109.298 200.894 111.529C200.894 113.76 199.081 115.574 196.85 115.574C194.619 115.574 192.805 113.76 192.805 111.529C192.805 109.298 194.619 107.485 196.85 107.485Z" fill="#01004C"/>
<path d="M158.27 108.6H186.46C186.651 108.6 186.802 108.449 186.802 108.258C186.802 108.066 186.651 107.915 186.46 107.915H158.27C158.078 107.915 157.928 108.066 157.928 108.258C157.928 108.449 158.078 108.6 158.27 108.6Z" fill="#01004C"/>
<path d="M168.283 144.859H201.805C195.317 144.859 191.443 140.438 191.443 134.983V122.041C191.443 116.942 186.529 112.816 180.465 112.816H179.261C173.197 112.816 168.283 116.949 168.283 122.041V144.859Z" fill="#C3C3D8"/>
<path d="M168.283 145.201H201.805C201.996 145.201 202.147 145.05 202.147 144.859C202.147 144.667 201.996 144.517 201.805 144.517C195.905 144.517 191.785 140.595 191.785 134.983V122.041C191.785 116.765 186.707 112.473 180.465 112.473H179.261C173.019 112.473 167.941 116.765 167.941 122.041V144.859C167.941 145.05 168.092 145.201 168.283 145.201ZM197.657 144.517H168.632V122.041C168.632 117.141 173.402 113.158 179.268 113.158H180.472C186.337 113.158 191.108 117.141 191.108 122.041V134.983C191.108 139.562 193.66 143.093 197.657 144.517Z" fill="#01004C"/>
<path d="M129.402 112.816H179.493C173.47 112.816 168.591 116.792 168.591 121.693V158.643C168.591 161.812 165.436 164.378 161.548 164.378H113.723V125.587C113.723 118.538 120.745 112.823 129.402 112.823V112.816Z" fill="#FAD78B"/>
<path d="M113.723 164.714H161.548C165.62 164.714 168.933 161.99 168.933 158.636V121.686C168.933 116.978 173.669 113.152 179.493 113.152C179.685 113.152 179.835 113.001 179.835 112.81C179.835 112.618 179.685 112.468 179.493 112.468H129.403C120.567 112.468 113.381 118.346 113.381 125.574V164.365C113.381 164.556 113.532 164.707 113.723 164.707V164.714ZM175.243 113.159C171.143 114.534 168.248 117.84 168.248 121.693V158.643C168.248 161.614 165.244 164.036 161.548 164.036H114.065V125.587C114.065 118.737 120.943 113.166 129.403 113.166H175.243V113.159Z" fill="#543C0C"/>
<path d="M153.191 135.661C155.538 135.661 157.448 133.759 157.448 131.404C157.448 129.057 155.545 127.148 153.191 127.148C150.843 127.148 148.934 129.05 148.934 131.404C148.934 133.752 150.837 135.661 153.191 135.661Z" fill="#7C55FF"/>
<path d="M153.191 136.003C155.723 136.003 157.79 133.943 157.79 131.404C157.79 128.865 155.73 126.805 153.191 126.805C150.652 126.805 148.592 128.865 148.592 131.404C148.592 133.943 150.652 136.003 153.191 136.003ZM153.191 127.49C155.347 127.49 157.105 129.249 157.105 131.404C157.105 133.56 155.347 135.319 153.191 135.319C151.035 135.319 149.276 133.56 149.276 131.404C149.276 129.249 151.035 127.49 153.191 127.49Z" fill="#01004C"/>
<path d="M122.284 128.27H144.274C144.465 128.27 144.616 128.12 144.616 127.928C144.616 127.736 144.465 127.586 144.274 127.586H122.284C122.093 127.586 121.942 127.736 121.942 127.928C121.942 128.12 122.093 128.27 122.284 128.27Z" fill="#01004C"/>
<path d="M133.351 132.815H144.274C144.465 132.815 144.616 132.664 144.616 132.473C144.616 132.281 144.465 132.13 144.274 132.13H133.351C133.159 132.13 133.009 132.281 133.009 132.473C133.009 132.664 133.159 132.815 133.351 132.815Z" fill="#01004C"/>
<path d="M122.284 136.592H144.274C144.465 136.592 144.616 136.441 144.616 136.25C144.616 136.058 144.465 135.908 144.274 135.908H122.284C122.093 135.908 121.942 136.058 121.942 136.25C121.942 136.441 122.093 136.592 122.284 136.592Z" fill="#01004C"/>
<path d="M99.6382 143.628L155.922 143.675L155.895 157.788C155.868 160.949 157.873 163.653 161.651 164.241C161.747 164.255 162.143 164.262 161.651 164.269C160.959 164.282 160.405 164.269 160.405 164.269L123.722 164.303C123.564 164.303 123.4 164.303 123.243 164.289L107.734 164.303C103.218 164.282 99.5766 161.36 99.6039 157.788L99.6313 143.628H99.6382Z" fill="#C3C3D8"/>
<path d="M107.734 164.646L123.242 164.632C123.386 164.639 123.55 164.646 123.714 164.646L160.398 164.612C160.398 164.612 160.952 164.625 161.65 164.612C161.917 164.612 162.218 164.605 162.225 164.269C162.225 164.119 162.156 163.934 161.807 163.913C161.766 163.913 161.718 163.913 161.698 163.907C158.303 163.38 156.202 161.039 156.23 157.795L156.257 143.683C156.257 143.594 156.223 143.505 156.154 143.443C156.093 143.382 156.004 143.341 155.915 143.341L99.6306 143.293C99.439 143.293 99.2884 143.443 99.2884 143.635L99.261 157.795C99.2473 159.335 99.8975 160.854 101.088 162.059C102.703 163.694 105.119 164.639 107.727 164.653L107.734 164.646ZM123.263 163.948L107.741 163.961C105.318 163.948 103.073 163.078 101.588 161.573C100.507 160.478 99.9454 159.171 99.9523 157.788L99.9796 143.97L155.579 144.018L155.552 157.788C155.532 160.574 156.989 162.818 159.412 163.927L123.728 163.961C123.577 163.961 123.42 163.961 123.269 163.948H123.263Z" fill="#64480F"/>
<path d="M186.437 156.398L186.422 153.501L228.816 153.005L228.774 156.167L186.437 156.398Z" fill="#EA4747"/>
<path d="M188.084 153.41C191.924 150.179 200.709 147.307 215.861 149.152C225.729 150.355 230.9 154.141 228.072 157.476C224.635 161.531 214.575 163.02 199.738 161.766C189.529 160.904 183.283 157.45 188.084 153.41Z" fill="#EA4747"/>
<path d="M188.069 150.62C191.908 147.389 200.694 144.517 215.845 146.363C225.713 147.565 230.885 151.351 228.057 154.686C224.62 158.742 214.559 160.23 199.723 158.976C189.513 158.114 183.267 154.66 188.069 150.62Z" fill="#ED6B6C"/>
<path d="M209.027 158.736C206.558 158.736 203.858 158.612 200.942 158.365C194.545 157.825 190.135 156.115 189.433 153.906C189.2 153.173 189.258 152.018 190.847 150.681C192.908 148.946 199.36 145.114 214.72 146.986C220.696 147.713 224.969 149.599 225.872 151.902C226.23 152.816 226.038 153.751 225.314 154.602C223.811 156.377 220.912 157.598 216.701 158.232C214.474 158.568 211.907 158.736 209.025 158.736H209.027ZM207.02 147.147C204.22 147.147 201.648 147.374 199.324 147.826C194.952 148.679 192.53 150.122 191.269 151.185C190.216 152.072 189.807 152.921 190.057 153.709C190.668 155.631 194.961 157.203 200.995 157.713C213.525 158.772 221.985 157.518 224.813 154.181C225.377 153.515 225.526 152.829 225.259 152.144C224.458 150.097 220.288 148.328 214.64 147.641C211.945 147.313 209.399 147.149 207.018 147.149L207.02 147.147Z" fill="#EA4747"/>
<path d="M186.419 153.206L186.404 150.307L228.798 149.813L228.754 152.973L186.419 153.206Z" fill="#EA4747"/>
<path d="M188.064 150.217C191.903 146.987 200.689 144.115 215.84 145.96C225.708 147.162 230.879 150.948 228.051 154.284C224.615 158.339 214.554 159.828 199.717 158.574C189.508 157.711 183.262 154.257 188.064 150.217Z" fill="#EA4747"/>
<path d="M188.048 147.426C191.888 144.195 200.673 141.323 215.825 143.169C225.693 144.371 230.864 148.157 228.036 151.493C224.599 155.548 214.539 157.036 199.702 155.782C189.493 154.92 183.247 151.466 188.048 147.426Z" fill="#ED6B6C"/>
<path d="M209.009 155.544C206.539 155.544 203.839 155.42 200.923 155.174C194.527 154.634 190.117 152.924 189.414 150.714C189.182 149.981 189.239 148.827 190.828 147.489C192.889 145.755 199.341 141.923 214.701 143.795C220.678 144.522 224.95 146.407 225.853 148.711C226.212 149.625 226.019 150.56 225.296 151.411C223.792 153.185 220.893 154.407 216.682 155.04C214.455 155.376 211.888 155.544 209.007 155.544H209.009ZM206.999 143.955C204.2 143.955 201.627 144.182 199.305 144.634C194.933 145.487 192.512 146.93 191.25 147.993C190.197 148.88 189.788 149.73 190.038 150.518C190.649 152.439 194.943 154.012 200.977 154.521C213.506 155.58 221.966 154.327 224.794 150.989C225.359 150.323 225.507 149.638 225.24 148.953C224.439 146.905 220.269 145.136 214.621 144.449C211.926 144.121 209.381 143.957 206.999 143.957V143.955Z" fill="#F9C7BB"/>
<path d="M189.969 148.783L189.953 145.886L232.348 145.39L232.306 148.552L189.969 148.783Z" fill="#EA4747"/>
<path d="M191.614 145.795C195.453 142.564 204.239 139.692 219.391 141.537C229.258 142.739 234.43 146.525 231.602 149.861C228.165 153.916 218.104 155.405 203.268 154.151C193.058 153.288 186.813 149.834 191.614 145.795Z" fill="#EA4747"/>
<path d="M191.598 143.005C195.438 139.774 204.224 136.902 219.375 138.747C229.243 139.95 234.414 143.736 231.586 147.071C228.15 151.126 218.089 152.615 203.252 151.361C193.043 150.498 186.797 147.045 191.598 143.005Z" fill="#ED6B6C"/>
<path d="M212.559 151.12C210.09 151.12 207.389 150.996 204.474 150.75C198.077 150.21 193.667 148.5 192.965 146.29C192.732 145.558 192.789 144.403 194.379 143.065C196.44 141.331 202.893 137.499 218.251 139.371C224.228 140.098 228.501 141.983 229.403 144.287C229.762 145.201 229.569 146.136 228.846 146.987C227.342 148.762 224.444 149.983 220.232 150.616C218.005 150.952 215.438 151.12 212.557 151.12H212.559ZM194.8 143.569C193.747 144.457 193.339 145.306 193.589 146.094C194.199 148.015 198.493 149.588 204.527 150.097C217.057 151.157 225.516 149.903 228.344 146.565C228.909 145.899 229.058 145.214 228.791 144.529C227.989 142.482 223.82 140.713 218.171 140.026C212.309 139.312 207.155 139.375 202.855 140.213C198.483 141.066 196.062 142.508 194.8 143.571V143.569Z" fill="#F9C7BB"/>
<path d="M186.868 143.355L186.853 140.458L229.247 139.962L229.203 143.124L186.868 143.355Z" fill="#EA4747"/>
<path d="M188.513 140.367C192.352 137.136 201.138 134.264 216.29 136.11C226.157 137.312 231.329 141.098 228.501 144.433C225.064 148.489 215.003 149.977 200.167 148.723C189.957 147.861 183.712 144.407 188.513 140.367Z" fill="#EA4747"/>
<path d="M188.497 137.576C192.337 134.346 201.123 131.474 216.274 133.319C226.142 134.521 231.313 138.307 228.485 141.643C225.048 145.698 214.988 147.186 200.151 145.933C189.942 145.07 183.696 141.616 188.497 137.576Z" fill="#ED6B6C"/>
<path d="M209.456 145.693C206.987 145.693 204.287 145.569 201.371 145.323C194.974 144.782 190.564 143.073 189.862 140.863C189.629 140.13 189.687 138.976 191.276 137.638C193.337 135.903 199.789 132.071 215.149 133.943C221.125 134.671 225.398 136.556 226.301 138.859C226.659 139.773 226.467 140.708 225.743 141.559C224.24 143.334 221.341 144.555 217.129 145.189C214.903 145.525 212.336 145.693 209.454 145.693H209.456ZM207.449 134.104C204.649 134.104 202.077 134.331 199.755 134.783C195.383 135.636 192.961 137.079 191.7 138.142C190.646 139.029 190.238 139.878 190.488 140.666C191.099 142.588 195.392 144.16 201.426 144.67C213.956 145.729 222.415 144.475 225.243 141.138C225.808 140.472 225.957 139.787 225.69 139.102C224.889 137.054 220.719 135.285 215.07 134.598C212.376 134.27 209.83 134.106 207.449 134.106V134.104Z" fill="#F9C7BB"/>
<path d="M204.261 143.321L204.551 142.895C204.656 142.74 204.383 142.59 203.925 142.54C202.845 142.426 201.838 142.25 201.097 142.052C200.739 141.956 200.658 141.786 200.905 141.657L201.074 141.567C201.372 141.409 202.021 141.37 202.462 141.483C203.315 141.7 204.414 141.884 205.649 141.968C207.753 142.111 209.028 141.712 209.414 141.145C209.788 140.598 209.29 140.265 207.299 139.819C204.548 139.216 201.868 138.556 202.458 137.689C202.973 136.934 204.916 136.268 208.433 136.468C208.853 136.493 209.221 136.361 209.314 136.224L209.631 135.758C209.744 135.592 210.248 135.485 210.755 135.52C211.263 135.554 211.583 135.716 211.469 135.882L211.206 136.27C211.102 136.42 211.36 136.573 211.809 136.623C212.711 136.72 213.41 136.846 213.961 136.976C214.356 137.069 214.451 137.248 214.184 137.386L214.016 137.472C213.723 137.623 213.106 137.659 212.669 137.558C212.055 137.414 211.171 137.258 209.938 137.174C207.656 137.019 206.484 137.42 206.212 137.819C205.859 138.336 207.423 138.495 209.757 139.027C212.526 139.651 214.053 140.37 213.703 141.271C213.329 142.231 211.188 142.775 207.349 142.71C206.921 142.702 206.559 142.817 206.465 142.954L206.128 143.448C206.015 143.614 205.511 143.721 205.004 143.687H204.975C204.467 143.651 204.147 143.489 204.261 143.323V143.321Z" fill="#EA4747"/>
<path d="M187.303 138.331L187.285 135.434L229.681 134.938L229.638 138.1L187.303 138.331Z" fill="#EA4747"/>
<path d="M188.947 135.342C192.787 132.112 201.572 129.24 216.724 131.085C226.592 132.287 231.763 136.073 228.935 139.409C225.498 143.464 215.438 144.953 200.601 143.699C190.392 142.836 184.146 139.382 188.947 135.342Z" fill="#EA4747"/>
<path d="M188.932 132.552C192.772 129.322 201.557 126.45 216.709 128.295C226.577 129.497 231.748 133.283 228.92 136.619C225.483 140.674 215.423 142.162 200.586 140.909C190.377 140.046 184.131 136.592 188.932 132.552Z" fill="#ED6B6C"/>
<path d="M209.891 140.668C207.422 140.668 204.721 140.544 201.806 140.298C195.409 139.758 190.999 138.048 190.297 135.838C190.064 135.106 190.121 133.951 191.711 132.613C193.772 130.879 200.225 127.047 215.583 128.919C221.56 129.646 225.833 131.531 226.735 133.835C227.094 134.749 226.901 135.684 226.178 136.535C224.674 138.31 221.776 139.531 217.564 140.164C215.337 140.5 212.77 140.668 209.889 140.668H209.891ZM192.132 133.117C191.079 134.005 190.671 134.854 190.921 135.642C191.531 137.563 195.825 139.136 201.859 139.645C214.389 140.704 222.848 139.451 225.676 136.113C226.241 135.447 226.39 134.762 226.123 134.077C225.321 132.029 221.152 130.261 215.503 129.574C209.641 128.86 204.487 128.923 200.187 129.761C195.815 130.614 193.394 132.058 192.132 133.119V133.117Z" fill="#F9C7BB"/>
<path d="M204.696 138.296L204.986 137.871C205.091 137.716 204.818 137.565 204.36 137.516C203.28 137.401 202.272 137.226 201.532 137.027C201.173 136.932 201.093 136.762 201.339 136.632L201.509 136.542C201.807 136.384 202.456 136.346 202.896 136.458C203.749 136.676 204.849 136.859 206.083 136.943C208.188 137.084 209.463 136.687 209.848 136.121C210.222 135.573 209.724 135.241 207.734 134.794C204.982 134.191 202.303 133.531 202.893 132.665C203.408 131.909 205.35 131.243 208.867 131.443C209.287 131.468 209.655 131.337 209.749 131.199L210.066 130.734C210.178 130.568 210.682 130.461 211.19 130.495C211.697 130.529 212.018 130.692 211.903 130.858L211.64 131.245C211.537 131.396 211.795 131.548 212.243 131.598C213.146 131.695 213.844 131.821 214.396 131.951C214.791 132.045 214.886 132.224 214.619 132.361L214.451 132.447C214.157 132.598 213.541 132.634 213.104 132.533C212.489 132.39 211.606 132.234 210.373 132.15C208.091 131.995 206.919 132.396 206.646 132.795C206.293 133.312 207.858 133.47 210.192 134.002C212.961 134.626 214.487 135.348 214.138 136.247C213.764 137.206 211.623 137.75 207.783 137.685C207.356 137.678 206.993 137.792 206.9 137.93L206.562 138.424C206.45 138.59 205.946 138.697 205.438 138.662H205.41C204.902 138.626 204.581 138.464 204.696 138.298V138.296Z" fill="#F9C7BB"/>
<path d="M183.204 132.045L183.187 129.148L225.583 128.652L225.539 131.814L183.204 132.045Z" fill="#EA4747"/>
<path d="M184.849 129.056C188.689 125.825 197.475 122.953 212.626 124.799C222.494 126.001 227.665 129.787 224.837 133.122C221.4 137.177 211.34 138.666 196.503 137.412C186.294 136.55 180.048 133.096 184.849 129.056Z" fill="#EA4747"/>
<path d="M184.834 126.266C188.674 123.035 197.459 120.163 212.611 122.009C222.479 123.211 227.65 126.997 224.822 130.333C221.385 134.388 211.325 135.876 196.488 134.622C186.279 133.76 180.033 130.306 184.834 126.266Z" fill="#ED6B6C"/>
<path d="M205.793 134.384C203.323 134.384 200.623 134.26 197.707 134.014C191.311 133.474 186.901 131.764 186.199 129.554C185.966 128.821 186.023 127.667 187.613 126.329C189.674 124.595 196.125 120.763 211.485 122.635C217.462 123.362 221.734 125.247 222.637 127.551C222.996 128.465 222.803 129.4 222.08 130.251C220.576 132.025 217.677 133.247 213.466 133.88C211.239 134.216 208.672 134.384 205.791 134.384H205.793ZM203.785 122.793C200.986 122.793 198.413 123.02 196.089 123.473C191.717 124.326 189.296 125.768 188.034 126.831C186.981 127.718 186.573 128.568 186.823 129.356C187.433 131.277 191.727 132.85 197.761 133.359C210.291 134.418 218.75 133.165 221.578 129.827C222.143 129.161 222.292 128.476 222.024 127.791C221.223 125.743 217.053 123.974 211.405 123.287C208.71 122.959 206.165 122.795 203.783 122.795L203.785 122.793Z" fill="#F9C7BB"/>
<path d="M190.482 127.845L190.465 124.946L232.861 124.452L232.817 127.612L190.482 127.845Z" fill="#EA4747"/>
<path d="M192.126 124.857C195.966 121.626 204.751 118.754 219.903 120.6C229.771 121.802 234.942 125.588 232.114 128.924C228.677 132.979 218.617 134.467 203.78 133.213C193.571 132.351 187.325 128.897 192.126 124.857Z" fill="#EA4747"/>
<path d="M192.111 122.065C195.951 118.834 204.736 115.962 219.888 117.808C229.756 119.01 234.927 122.796 232.099 126.131C228.662 130.187 218.602 131.675 203.765 130.421C193.556 129.559 187.31 126.105 192.111 122.065Z" fill="#ED6B6C"/>
<path d="M213.07 130.183C210.601 130.183 207.9 130.059 204.984 129.813C198.588 129.273 194.178 127.563 193.476 125.353C193.243 124.62 193.3 123.466 194.89 122.128C196.951 120.393 203.403 116.562 218.762 118.434C224.739 119.161 229.012 121.046 229.914 123.349C230.273 124.263 230.08 125.198 229.357 126.05C227.853 127.824 224.955 129.046 220.743 129.679C218.516 130.015 215.949 130.183 213.068 130.183H213.07ZM211.062 118.594C208.263 118.594 205.691 118.821 203.366 119.273C198.994 120.126 196.573 121.569 195.311 122.632C194.258 123.519 193.85 124.368 194.1 125.157C194.71 127.078 199.004 128.651 205.038 129.16C217.568 130.219 226.027 128.965 228.855 125.628C229.42 124.962 229.569 124.277 229.302 123.592C228.5 121.544 224.331 119.775 218.682 119.088C215.988 118.76 213.442 118.596 211.06 118.596L211.062 118.594Z" fill="#F9C7BB"/>
<path d="M207.876 127.809L208.166 127.384C208.271 127.229 207.998 127.078 207.54 127.029C206.46 126.914 205.452 126.739 204.712 126.54C204.353 126.445 204.273 126.275 204.519 126.145L204.689 126.055C204.986 125.897 205.635 125.859 206.076 125.972C206.929 126.189 208.028 126.372 209.263 126.456C211.368 126.597 212.642 126.201 213.028 125.634C213.402 125.086 212.904 124.754 210.914 124.307C208.162 123.704 205.483 123.044 206.072 122.178C206.587 121.422 208.53 120.756 212.047 120.957C212.467 120.981 212.835 120.85 212.929 120.712L213.245 120.247C213.358 120.081 213.862 119.974 214.369 120.008C214.877 120.043 215.198 120.205 215.083 120.371L214.82 120.758C214.717 120.909 214.974 121.062 215.423 121.111C216.325 121.208 217.024 121.334 217.575 121.464C217.97 121.558 218.066 121.737 217.799 121.874L217.631 121.96C217.337 122.111 216.72 122.147 216.283 122.046C215.669 121.903 214.785 121.747 213.553 121.663C211.27 121.508 210.099 121.909 209.826 122.308C209.473 122.825 211.038 122.983 213.371 123.516C216.14 124.14 217.667 124.859 217.318 125.76C216.944 126.72 214.803 127.263 210.963 127.199C210.536 127.191 210.173 127.305 210.08 127.443L209.742 127.937C209.629 128.103 209.125 128.21 208.618 128.176H208.587C208.08 128.139 207.759 127.977 207.874 127.811L207.876 127.809Z" fill="#F9C7BB"/>
<path d="M2.49536 4.55325C3.93325 2.89702 5.89142 1.97967 7.98755 2.22806L67.5891 9.28275C71.263 9.71807 74.1018 13.6305 74.1018 18.3482V134.739C74.1018 139.436 71.2894 143.335 67.636 143.798L8.03442 151.343C5.93062 151.61 3.96072 150.699 2.51294 149.043C1.06487 147.385 0.142902 144.985 0.142822 142.285V11.2925C0.14292 8.60399 1.05714 6.21011 2.49536 4.55325Z" stroke="white" stroke-width="0.190827"/>
<path d="M70.6133 20.466V125.766C70.6133 130.043 68.1135 133.623 64.8275 134.048L34.9248 137.926L12.1821 140.876C8.39986 141.366 5.11572 137.519 5.11572 132.594V14.0847C5.11572 9.18048 8.37123 5.34102 12.1401 5.7971L52.7729 10.7243L64.7855 12.1803C67.6326 12.5257 69.9016 15.245 70.4721 18.7428C70.5637 19.3 70.6114 19.8782 70.6114 20.4679L70.6133 20.466Z" fill="#F7F0F7"/>
<path d="M52.7746 10.7226L5.11743 47.9645V14.0831C5.11743 9.17885 8.37294 5.33941 12.1418 5.79548L52.7746 10.7226Z" fill="#DDD7DD"/>
<path d="M70.6132 20.4659V55.5953L5.11743 77.8037V62.1158L70.4739 18.7389C70.5654 19.2961 70.6132 19.8743 70.6132 20.464V20.4659Z" fill="#DDD7DD"/>
<path d="M104.21 111.663L29.2621 109.626C25.2322 109.517 22.0374 106.19 22.0909 102.158L22.6285 62.2708C22.6871 57.9404 26.4487 54.5934 30.7559 55.0375L107.532 62.9672C111.486 63.3756 114.405 66.8449 114.128 70.811L111.763 104.805C111.489 108.744 108.156 111.769 104.208 111.661L104.21 111.663Z" fill="#ED6B6C"/>
<path d="M28.268 100.917L28.2235 101.548C28.1868 102.089 28.7336 102.567 29.4464 102.617L44.0315 103.632C44.7443 103.682 45.3546 103.283 45.3913 102.742C45.4279 102.222 44.922 101.757 44.2412 101.679L29.6987 100.034C28.959 99.9499 28.3048 100.354 28.2656 100.916L28.268 100.917Z" fill="#EA4747"/>
<path d="M48.2306 102.307L48.1861 102.938C48.1494 103.479 48.6963 103.957 49.409 104.007L63.9942 105.022C64.7069 105.072 65.3173 104.673 65.354 104.132C65.3906 103.612 64.8847 103.147 64.2039 103.069L49.6614 101.424C48.9216 101.34 48.2674 101.744 48.2283 102.306L48.2306 102.307Z" fill="#EA4747"/>
<path d="M30.9899 61.8169L30.9288 62.6946C30.8757 63.4477 31.6396 64.1162 32.6341 64.1856L52.9607 65.6003C53.9552 65.6697 54.8041 65.1143 54.8572 64.3612C54.9079 63.6364 54.2045 62.9872 53.2533 62.8806L32.986 60.5886C31.9551 60.4717 31.0429 61.0342 30.9886 61.8192L30.9899 61.8169Z" fill="#EA4747"/>
<path d="M58.8095 63.7527L58.7483 64.6305C58.6953 65.3835 59.4592 66.0521 60.4537 66.1214L80.7821 67.5357C81.7767 67.605 82.6255 67.0496 82.6786 66.2965C82.7293 65.5717 82.0259 64.9226 81.0747 64.8159L60.8075 62.5239C59.7765 62.407 58.8644 62.9695 58.81 63.7546L58.8095 63.7527Z" fill="#EA4747"/>
<path d="M22.8939 71.7857L22.3657 81.8031L112.809 89.7927L113.623 78.0984L22.8939 71.7857Z" fill="#30262A"/>
<path d="M104.589 108.219L97.0668 108.014C96.2708 107.992 95.6404 107.335 95.6501 106.539L95.7277 100.532C95.7393 99.6535 96.5182 98.9845 97.3868 99.1074L105.189 100.2C105.946 100.307 106.492 100.98 106.44 101.743L106.083 106.863C106.029 107.642 105.369 108.239 104.589 108.219Z" fill="#30262A"/>
</svg>
