<svg width="137" height="21" viewBox="0 0 137 21" fill="none" xmlns="http://www.w3.org/2000/svg">
<path d="M7.07449 6.81647C8.95747 6.81647 10.562 7.50549 11.8876 8.88205C13.2132 10.2418 13.8764 11.9039 13.8764 13.8685V20.3545H8.72106V13.9737C8.72106 13.2195 8.56049 12.5747 8.23988 12.0397C7.91861 11.5051 7.53037 11.2371 7.07449 11.2371C6.62667 11.2371 6.24267 11.5051 5.92166 12.0397C5.60065 12.5747 5.44022 13.2195 5.44022 13.9737V20.3548H0.285156V13.8685C0.285156 11.9039 0.948074 10.2418 2.27391 8.88205C3.59114 7.50531 5.19123 6.81647 7.07449 6.81647Z" fill="#E0E1E2"/>
<path d="M18.8349 5.75104C18.286 6.31245 18.0032 6.7292 17.9863 7.00119V7.02746C17.9863 7.30831 18.227 7.69431 18.7083 8.1854L19.2783 8.77764C19.7848 9.31269 20.0382 9.953 20.0382 10.6983V20.3553H14.8323V10.6979C14.8323 9.9435 15.0857 9.30319 15.5923 8.77699L16.1751 8.18512C16.6478 7.69404 16.8846 7.30337 16.8846 7.01395V6.98769C16.8591 6.72435 16.5762 6.31235 16.0357 5.75094L15.415 5.09284C14.8493 4.51401 14.5664 3.81251 14.5664 2.98767C14.5664 2.16339 14.8493 1.46589 15.415 0.895724C15.9638 0.308046 16.6352 0.0141602 17.4292 0.0141602C18.2313 0.0141602 18.9067 0.303667 19.4558 0.882776C20.0214 1.4617 20.3044 2.1633 20.3044 2.98767C20.3044 3.82108 20.0214 4.52268 19.4558 5.09284L18.8349 5.75104Z" fill="#E0E1E2"/>
<path d="M28.6577 16.1444C28.8857 15.6968 29.0332 15.1709 29.1012 14.5656H34.2436C34.1 16.2582 33.4499 17.6966 32.293 18.8808V18.8943C30.9756 20.2709 29.388 20.9596 27.5304 20.9596H27.4672C25.6009 20.9596 24.0093 20.2709 22.6919 18.8943V18.8808C21.3662 17.5216 20.7031 15.8724 20.7031 13.9341V13.8681C20.7031 11.9298 21.366 10.2806 22.6919 8.92139C24.0091 7.54455 25.6095 6.85562 27.4924 6.85562C29.3671 6.85562 30.9672 7.54455 32.2932 8.92139C33.45 10.1144 34.1 11.5526 34.2438 13.2366H29.101C29.0332 12.6313 28.8857 12.1051 28.6576 11.6579C28.3282 11.0439 27.9398 10.737 27.4922 10.737C27.0446 10.737 26.6604 11.044 26.3396 11.6579C26.0187 12.2809 25.8582 13.0305 25.8582 13.9077C25.8582 14.776 26.0187 15.5215 26.3396 16.1446C26.6604 16.7584 27.0446 17.0701 27.4922 17.0786C27.9398 17.0699 28.3284 16.7582 28.6577 16.1444Z" fill="#E0E1E2"/>
<path d="M45.0515 14.4603L47.661 18.6046C47.8804 18.9467 47.9903 19.2539 47.9903 19.5256C47.9903 19.6397 47.9734 19.745 47.9396 19.8414C47.8213 20.1834 47.5679 20.3545 47.1796 20.3545H42.9237L40.2383 16.0787V20.3414H35.083V9.48699C35.083 8.75 35.3364 8.11863 35.8431 7.59206C36.3413 7.07471 36.9451 6.81575 37.6544 6.81575C38.372 6.81575 38.98 7.07471 39.4783 7.59206C39.985 8.11863 40.2384 8.7499 40.2384 9.48699V12.3817L42.5692 8.05296C42.9322 7.41247 43.4599 7.00047 44.1523 6.81594C44.3806 6.75474 44.6041 6.72391 44.8236 6.72391C45.2712 6.72391 45.6976 6.84696 46.1031 7.09231C46.7193 7.47823 47.1162 8.03098 47.2937 8.7499C47.3525 8.97812 47.3822 9.20624 47.3822 9.43408C47.3822 9.89909 47.2598 10.3419 47.0149 10.763L45.0515 14.4603Z" fill="#E0E1E2"/>
<path d="M54.0107 6.85562C55.8601 6.85562 57.456 7.55759 58.7987 8.9607C59.711 9.90812 60.2556 11.1404 60.4328 12.6578C60.475 13.0261 60.496 13.3682 60.496 13.6841C60.496 14.0349 60.4708 14.3507 60.4202 14.6315H52.4276C52.4952 15.1838 52.6386 15.6665 52.8584 16.0791C53.1793 16.6928 53.5634 17.004 54.0112 17.0132C54.4671 17.0132 54.8934 16.737 55.2904 16.1841C55.4846 15.9038 55.6363 15.6229 55.746 15.3422H60.344C60.2933 16.5525 59.7948 17.7192 58.8492 18.842C57.5067 20.2454 55.9063 20.9472 54.049 20.9472C52.1488 20.9472 50.5359 20.2583 49.21 18.8815C47.8844 17.5131 47.2217 15.8513 47.2217 13.8952C47.2217 11.9479 47.8844 10.286 49.21 8.90919C50.5359 7.53971 52.1362 6.85562 54.0107 6.85562ZM55.5056 12.6447C55.4126 12.197 55.3029 11.855 55.1762 11.6182C54.8383 10.987 54.4499 10.6708 54.0109 10.6708C53.5211 10.6708 53.1368 10.9781 52.8582 11.5918C52.7148 11.9076 52.6006 12.2586 52.5162 12.6443L55.5056 12.6447Z" fill="#E0E1E2"/>
<path d="M63.6398 -6.10352e-05C64.3572 -6.10352e-05 64.9652 0.263085 65.4637 0.789379C65.9705 1.30692 66.2238 1.93856 66.2238 2.68441V20.3535H61.0684V2.68413C61.0684 1.93856 61.3173 1.30692 61.8158 0.789286C62.3226 0.263086 62.9304 -6.10352e-05 63.6398 -6.10352e-05Z" fill="#E0E1E2"/>
<path d="M78.535 8.89143C79.8606 10.2686 80.5236 11.9311 80.5236 13.8779C80.5236 15.8337 79.8606 17.5006 78.535 18.8773C78.4922 18.9216 78.4124 19.0002 78.2941 19.1144C78.193 19.2109 78.1425 19.2637 78.1425 19.2719C76.8672 20.386 75.4021 20.9433 73.7471 20.9433H73.6839C72.0372 20.9433 70.5806 20.3815 69.314 19.2591C69.2295 19.2064 69.0944 19.0794 68.9086 18.8776C67.583 17.5007 66.9199 15.834 66.9199 13.878C66.9199 11.931 67.583 10.2689 68.9086 8.89171C70.2343 7.50602 71.8384 6.8129 73.7222 6.8129C75.6048 6.8128 77.2093 7.50574 78.535 8.89143ZM74.8744 16.1278C75.2033 15.5051 75.3684 14.7555 75.3684 13.878C75.3684 13.0097 75.2033 12.2641 74.8744 11.6413C74.553 11.0184 74.1694 10.7071 73.7217 10.7071C73.2739 10.7071 72.8858 11.0184 72.5564 11.6413C72.244 12.2729 72.0876 13.0182 72.0876 13.878C72.0876 14.7463 72.244 15.4962 72.5564 16.1278C72.8858 16.7511 73.2739 17.0619 73.7217 17.0619C74.1694 17.0619 74.5533 16.7505 74.8744 16.1278Z" fill="#E0E1E2"/>
<path d="M92.6617 18.8929C91.3445 20.2697 89.744 20.9585 87.8613 20.9585C85.9783 20.9585 84.3783 20.2697 83.061 18.8929C81.7353 17.516 81.0723 15.8534 81.0723 13.9065C81.0723 11.9596 81.7353 10.2974 83.061 8.92028C84.3783 7.54345 85.9783 6.85451 87.8613 6.85451C88.4183 6.85451 88.9632 6.92521 89.4954 7.0655V2.68385C89.4954 1.93828 89.7487 1.30692 90.2554 0.789006C90.762 0.263085 91.3698 -6.10352e-05 92.0794 -6.10352e-05C92.7893 -6.10352e-05 93.3962 0.263085 93.9037 0.789192C94.4013 1.30692 94.6546 1.9339 94.6637 2.67062V13.9063C94.6628 15.8537 93.9958 17.5158 92.6617 18.8929ZM87.8613 17.0774C88.3087 17.0774 88.693 16.7663 89.014 16.1433C89.3347 15.5294 89.4954 14.7795 89.4954 13.8932C89.4954 13.0163 89.3346 12.2707 89.014 11.6566C88.6926 11.0338 88.3088 10.7225 87.8613 10.7225C87.4051 10.7225 87.0211 11.0338 86.7088 11.6566C86.3875 12.2707 86.2274 13.0161 86.2274 13.8932C86.2274 14.7703 86.3876 15.5202 86.7088 16.1433C87.0211 16.766 87.4053 17.0774 87.8613 17.0774Z" fill="#E0E1E2"/>
<path d="M102.044 6.85562C103.892 6.85562 105.488 7.55759 106.831 8.9607C107.743 9.90812 108.287 11.1404 108.465 12.6578C108.507 13.0261 108.528 13.3682 108.528 13.6841C108.528 14.0349 108.503 14.3507 108.452 14.6315H100.46C100.527 15.1838 100.67 15.6665 100.891 16.0791C101.212 16.6928 101.595 17.004 102.044 17.0132C102.499 17.0132 102.926 16.737 103.323 16.1841C103.516 15.9038 103.668 15.6229 103.778 15.3422H108.377C108.326 16.5525 107.827 17.7192 106.881 18.842C105.539 20.2454 103.938 20.9472 102.081 20.9472C100.181 20.9472 98.5681 20.2583 97.2422 18.8815C95.9164 17.5131 95.2539 15.8513 95.2539 13.8952C95.2539 11.9479 95.9164 10.286 97.2422 8.90919C98.5681 7.53971 100.168 6.85562 102.044 6.85562ZM103.538 12.6447C103.445 12.197 103.335 11.855 103.208 11.6182C102.87 10.987 102.482 10.6708 102.044 10.6708C101.553 10.6708 101.169 10.9781 100.891 11.5918C100.747 11.9076 100.633 12.2586 100.548 12.6443L103.538 12.6447Z" fill="#E0E1E2"/>
<path d="M120.793 8.89143C122.119 10.2686 122.783 11.9311 122.783 13.8779C122.783 15.8337 122.119 17.5006 120.793 18.8773C120.751 18.9216 120.671 19.0002 120.553 19.1144C120.451 19.2109 120.401 19.2637 120.401 19.2719C119.126 20.386 117.66 20.9433 116.006 20.9433H115.943C114.296 20.9433 112.839 20.3815 111.573 19.2591C111.488 19.2064 111.353 19.0794 111.167 18.8776C109.841 17.5007 109.179 15.834 109.179 13.878C109.179 11.931 109.841 10.2689 111.167 8.89171C112.492 7.50602 114.098 6.8129 115.98 6.8129C117.864 6.8128 119.468 7.50574 120.793 8.89143ZM117.133 16.1278C117.462 15.5051 117.627 14.7555 117.627 13.878C117.627 13.0097 117.462 12.2641 117.133 11.6413C116.812 11.0184 116.428 10.7071 115.98 10.7071C115.533 10.7071 115.144 11.0184 114.815 11.6413C114.502 12.2729 114.346 13.0182 114.346 13.878C114.346 14.7463 114.502 15.4962 114.815 16.1278C115.144 16.7511 115.533 17.0619 115.98 17.0619C116.428 17.0619 116.812 16.7505 117.133 16.1278Z" fill="#E0E1E2"/>
<path d="M130.171 6.81647C132.053 6.81647 133.658 7.50549 134.983 8.88205C136.309 10.2418 136.972 11.9039 136.972 13.8685V20.3545H131.817V13.9737C131.817 13.2195 131.656 12.5747 131.335 12.0397C131.014 11.5051 130.626 11.2371 130.171 11.2371C129.722 11.2371 129.339 11.5051 129.018 12.0397C128.696 12.5747 128.537 13.2195 128.537 13.9737V20.3548H123.381V13.8685C123.381 11.9039 124.044 10.2416 125.37 8.88205C126.687 7.50531 128.287 6.81647 130.171 6.81647Z" fill="#E0E1E2"/>
</svg>
