<svg width="83" height="34" viewBox="0 0 83 34" fill="none" xmlns="http://www.w3.org/2000/svg">
<path d="M11.7395 2.01303C5.39 2.01303 0 6.60351 0 13.6631C0 20.0154 4.79769 25.0494 11.6685 25.0494C18.0062 25.0494 23.408 20.459 23.408 13.3994C23.408 7.05895 18.6103 2.01303 11.7395 2.01303ZM11.7395 23.6831C7.60523 23.6831 4.64369 19.4042 4.64369 13.5073C4.64369 7.86202 7.45123 3.39138 11.6803 3.39138C15.8146 3.39138 18.7762 7.67021 18.7762 13.5671C18.7643 19.2125 15.9568 23.6831 11.7395 23.6831ZM77.5331 10.7506V11.7094L78.8006 11.9611C79.2389 12.057 79.3692 12.4046 79.0849 13.1117L76.1708 20.2073C76.0405 20.4949 75.8865 20.4949 75.7917 20.2073L73.0789 13.1237C72.7946 12.3925 72.9486 12.069 73.3988 11.9731L74.6545 11.7214V10.7625H63.4243V11.7214L64.6918 11.9731C65.1302 12.069 65.296 12.4166 65.0117 13.1237L62.2042 20.5908C62.0739 20.8784 61.9198 20.8784 61.8251 20.5908L58.982 13.1237C58.7332 12.3925 58.8517 12.069 59.3019 11.9731L60.5575 11.7214V10.7625H53.4262V11.7454L54.1251 11.9012C54.5989 11.9971 54.8832 12.2487 55.0728 12.7042L59.8942 24.7019H62.0739L66.8952 12.7042C67.144 12.069 67.4283 11.8052 67.9377 11.8052H68.1272C68.5419 11.8052 68.8499 11.9611 69.1105 12.5723L74.1569 25.0255L72.8065 28.2855C71.918 30.4549 71.2665 30.8385 70.4372 30.8385C70.0937 30.8385 69.7146 30.7786 69.3355 30.7786C68.3523 30.7786 67.76 31.4857 67.76 32.2409C67.76 33.1038 68.4589 33.7151 69.5606 33.7151C71.1362 33.7151 72.688 32.4326 73.9792 29.3763L80.85 13.0638C81.1699 12.3327 81.5726 12.009 82.236 11.8772L82.9231 11.7454V10.7506H77.5331ZM33.3114 23.4553L28.0398 24.1265C26.3103 24.3542 25.7654 23.779 25.7654 22.88C25.7654 21.8253 26.9026 20.9983 30.8474 20.9983H30.9066C33.7734 20.9983 37.1495 19.2484 37.1495 15.4489C37.1495 14.2384 36.7112 13.1237 35.882 12.2248C35.5964 11.6072 35.4662 10.9279 35.5029 10.2471C35.5029 7.44249 37.3983 5.84845 39.3529 5.84845C40.1703 5.84845 40.4309 5.98022 40.4309 6.55557C40.4309 6.7114 40.3954 6.84325 40.3954 7.03498C40.3954 8.02978 41.2128 8.95269 42.3855 8.95269C43.582 8.95269 44.3402 7.99388 44.3402 6.93912C44.3402 5.34499 42.9186 4.15846 40.3006 4.15846C36.6994 4.15846 33.9274 6.51958 33.9274 10.1273C33.9274 10.415 33.9629 10.6427 33.9629 10.8584C33.0308 10.4723 32.0323 10.2768 31.0251 10.2831C28.182 10.2831 24.7822 12.0331 24.7822 15.8325C24.7822 17.5823 25.7654 19.2125 27.4594 20.1713C24.9362 20.5188 23.4909 21.8972 23.4909 24.0307C23.4909 26.2001 25.1968 27.7702 28.3834 27.3867L32.9915 26.8113C35.2897 26.5236 36.0478 27.3507 36.0478 28.5613C36.0478 30.6707 34.0932 32.3607 30.9658 32.3607C28.4782 32.3607 27.5542 31.4617 27.5542 30.1913L27.5897 29.5561C27.5897 28.789 27.1158 28.2496 26.3577 28.2136C25.4692 28.2136 24.9362 28.8489 24.9362 29.7718C24.9362 31.8813 26.9263 33.763 30.9895 33.763C35.5622 33.763 38.4645 30.7666 38.4645 27.3147C38.4763 24.57 36.3085 23.0718 33.3114 23.4553ZM30.9422 11.4217C32.4229 11.4217 33.6194 13.1117 33.6194 15.7006C33.6194 17.93 32.6125 19.8477 31.0369 19.8477C29.5206 19.8477 28.3242 18.1577 28.3242 15.5688C28.3242 13.3754 29.3311 11.4217 30.9422 11.4217Z" fill="#E0E1E2"/>
<path d="M52.2057 23.0489V0.959412L46.6498 2.39772V3.06885L48.2254 3.58425C48.4741 3.6802 48.5689 3.87192 48.5689 4.12361V22.9531C48.5689 23.3007 48.2846 23.5643 47.87 23.5643L46.4603 23.5883L44.9677 23.5643C44.553 23.5643 44.2687 23.3126 44.2687 22.9531V10.2124L38.7129 11.6507V12.3218L40.2884 12.8372C40.5372 12.933 40.632 13.1249 40.632 13.3766V23.0489C40.632 23.3366 40.478 23.4924 40.2529 23.5284L38.9617 23.6843V24.703H54.101V23.6843L52.561 23.5284C52.3597 23.4924 52.2057 23.3366 52.2057 23.0489Z" fill="#E0E1E2"/>
</svg>
