<svg width="121" height="20" viewBox="0 0 121 20" fill="none" xmlns="http://www.w3.org/2000/svg">
<path fill-rule="evenodd" clip-rule="evenodd" d="M12.8997 0.678664V4.20718C11.2113 3.59646 9.38772 3.25723 7.96943 3.25723C6.14592 3.25723 5.20039 3.8001 5.20039 4.818C5.20039 5.42872 5.60562 5.83579 6.88883 6.44651L10.2658 7.93943C12.9672 9.16087 14.318 10.9252 14.318 13.2324C14.318 16.8288 11.2113 19.0681 6.34853 19.0681C4.59256 19.0681 2.49889 18.7967 0.337688 18.3216V14.6573C2.49889 15.268 4.45747 15.6074 6.01084 15.6074C8.03697 15.6074 9.11757 15.0645 9.11757 13.9788C9.11757 13.368 8.71235 12.893 7.69927 12.418L3.98471 10.7895C1.28322 9.56805 0 7.87159 0 5.56441C0 2.17149 2.97165 0 7.63174 0C9.25264 0 11.2788 0.271485 12.8997 0.678664Z" fill="#E0E1E2"/>
<path fill-rule="evenodd" clip-rule="evenodd" d="M16.9502 0.338135H22.4208V18.7276H16.9502V0.338135Z" fill="#E0E1E2"/>
<path fill-rule="evenodd" clip-rule="evenodd" d="M40.1864 0.338135V3.73106H31.9468V7.87039H39.1734V10.924H31.9468V15.199H40.3215V18.7276H26.6113V0.338135H40.1864Z" fill="#E0E1E2"/>
<path fill-rule="evenodd" clip-rule="evenodd" d="M66.0518 0.338135V18.7276H60.7164V6.64895L55.5836 18.8634H52.2066L47.0738 6.64895V18.7276H43.4268V0.338135H50.113L54.773 11.5347L59.5007 0.338135H66.0518Z" fill="#E0E1E2"/>
<path fill-rule="evenodd" clip-rule="evenodd" d="M83.8124 0.338135V3.73106H75.5728V7.87039H82.7993V10.924H75.5728V15.199H83.9474V18.7276H70.2373V0.338135H83.8124Z" fill="#E0E1E2"/>
<path fill-rule="evenodd" clip-rule="evenodd" d="M103.058 0.338135V18.7276H97.2499L90.6988 6.92034V18.7276H87.0518V0.338135H92.995L99.4787 12.0097V0.338135H103.058Z" fill="#E0E1E2"/>
<path fill-rule="evenodd" clip-rule="evenodd" d="M118.935 0.678079V4.20669C117.246 3.59597 115.423 3.25664 114.004 3.25664C112.181 3.25664 111.168 3.79951 111.168 4.81741C111.168 5.49598 111.573 5.83521 112.857 6.44593L116.233 7.93885C118.935 9.16028 120.285 10.9246 120.285 13.2996C120.285 16.8282 117.179 19.1354 112.316 19.1354C110.561 19.1354 108.467 18.8639 106.306 18.389V14.7246C108.467 15.3353 110.425 15.6068 111.978 15.6068C114.004 15.6068 115.085 15.0639 115.085 14.046C115.085 13.3675 114.68 12.9603 113.667 12.4854L109.952 10.8567C107.183 9.63531 105.968 8.00669 105.968 5.63167C105.968 2.23875 108.939 0.0673608 113.599 0.0673608C115.288 -0.000585545 117.314 0.270901 118.935 0.678079Z" fill="#E0E1E2"/>
</svg>
