<svg width="145" height="34" viewBox="0 0 145 34" fill="none" xmlns="http://www.w3.org/2000/svg">
<path fill-rule="evenodd" clip-rule="evenodd" d="M89.9843 11.2245L89.98 11.222C89.98 11.222 89.9779 11.2203 89.9751 11.2203C89.8774 11.1776 89.7702 11.1554 89.667 11.1554C89.5002 11.1566 89.3402 11.2064 89.2005 11.2937C89.0581 11.3838 88.9378 11.5151 88.8687 11.6795V11.6835L85.6105 20.5951L83.0993 14.6219L83.0955 14.6194C83.025 14.4523 82.8984 14.3233 82.755 14.2335C82.6101 14.1434 82.443 14.0938 82.2672 14.0938C82.0963 14.0938 81.937 14.1474 81.7963 14.2347C81.6577 14.3245 81.5327 14.4523 81.4624 14.6194L81.4607 14.6219L78.9446 20.5989L75.669 11.6913H75.6663C75.6093 11.5192 75.4929 11.385 75.3546 11.2962C75.2139 11.2064 75.0494 11.1566 74.8798 11.1554C74.7716 11.1554 74.6621 11.1776 74.5587 11.2203H74.5538L74.55 11.2245C74.2446 11.3668 74.0581 11.6717 74.057 12.0041C74.057 12.1086 74.0778 12.2126 74.1178 12.3156H74.1169L78.1461 23.1281V23.1318C78.1776 23.2125 78.2216 23.2922 78.2871 23.3705C78.334 23.4264 78.4034 23.4736 78.4749 23.5128C78.4881 23.5255 78.5089 23.5437 78.54 23.5633C78.5737 23.5842 78.6172 23.5989 78.6613 23.6064C78.7331 23.6302 78.8285 23.6649 78.9561 23.6649C79.1192 23.6649 79.2705 23.6064 79.4062 23.5192C79.533 23.4345 79.6463 23.3078 79.7088 23.1437L79.7191 23.1358L82.2672 17.0489L84.8185 23.1111H84.821C84.8798 23.2727 84.9831 23.3993 85.1028 23.4892C85.2296 23.5842 85.3714 23.643 85.5217 23.6649H85.6287C85.7306 23.6649 85.8295 23.6455 85.9128 23.613C86.0004 23.5793 86.0709 23.5347 86.1294 23.4906C86.2664 23.3861 86.3722 23.2427 86.4375 23.0835V23.08L90.441 12.3156C90.4801 12.2126 90.5007 12.1097 90.5007 12.0057C90.4998 11.6758 90.305 11.3616 89.9843 11.2245ZM71.5652 17.3973C71.5652 16.1277 71.0773 14.9776 70.3013 14.1474C69.5211 13.3155 68.4645 12.807 67.3167 12.807C66.1685 12.807 65.1095 13.3155 64.3307 14.1474C63.553 14.9776 63.0652 16.1277 63.0652 17.3973C63.0652 18.6658 63.553 19.805 64.3307 20.63C65.1095 21.4582 66.1685 21.9587 67.3167 21.9587C68.4645 21.9587 69.5248 21.4582 70.3013 20.63C71.0773 19.805 71.5652 18.6658 71.5652 17.3973ZM71.543 12.9896C72.6206 14.1315 73.2753 15.6986 73.2779 17.3973C73.2753 19.096 72.6206 20.6615 71.543 21.8037C70.4737 22.9441 68.9799 23.6651 67.3193 23.6651C65.6714 23.6651 64.1754 22.9441 63.102 21.8037C62.027 20.6615 61.3616 19.096 61.3616 17.3973C61.3616 15.6986 62.027 14.1315 63.102 12.9896C64.1754 11.85 65.6714 11.1293 67.3193 11.1293C68.9799 11.1293 70.4737 11.85 71.543 12.9896ZM54.5784 11.1514C53.2426 11.1514 52.0231 11.6717 51.1126 12.502V12.0057C51.1112 11.7774 51.0265 11.5647 50.8775 11.4083C50.7331 11.2545 50.5188 11.1514 50.2842 11.1514C50.0413 11.1514 49.8223 11.2491 49.6698 11.4068C49.5197 11.5621 49.4298 11.7774 49.4298 12.0057V23.0696L49.465 23.1045L49.4663 23.1099C49.4756 23.1465 49.4987 23.1868 49.5235 23.2257C49.6396 23.4304 49.8301 23.5857 50.0661 23.6545L50.1001 23.6651H50.2842C50.4069 23.6651 50.5306 23.6391 50.6481 23.5842C50.746 23.5373 50.8371 23.4618 50.9103 23.3653L50.9129 23.3665C50.9219 23.3576 50.9247 23.3458 50.9351 23.3368C50.9391 23.3354 50.9429 23.3314 50.9455 23.3274C50.991 23.2688 51.029 23.209 51.0526 23.1529C51.0774 23.0863 51.093 23.0236 51.1048 22.9755L51.1126 22.9441V16.3008C51.1373 15.3505 51.5287 14.4915 52.1562 13.8669C52.7795 13.2428 53.6338 12.8567 54.5784 12.8567C55.5387 12.8567 56.3955 13.2428 57.0164 13.8669C57.64 14.4891 58.0183 15.3467 58.0183 16.2918V22.8154C58.0183 23.0536 58.12 23.274 58.2741 23.4253C58.4318 23.5762 58.647 23.6651 58.8715 23.6651C59.0997 23.6651 59.3138 23.5762 59.4702 23.4253C59.6293 23.274 59.7258 23.0536 59.7258 22.8154V16.2918C59.7258 13.4761 57.4247 11.1554 54.5784 11.1514ZM138.668 16.1873C138.183 14.2203 136.455 12.8187 134.482 12.8228C132.46 12.8228 130.756 14.1943 130.228 16.1873H138.668ZM140.538 16.9933V17.0777C140.538 17.3138 140.432 17.5264 140.271 17.6659C140.112 17.8066 139.905 17.8796 139.682 17.8823H130.109C130.352 20.2168 132.218 21.9407 134.444 21.9587H135.009C135.746 21.9612 136.464 21.707 137.095 21.286C137.728 20.869 138.274 20.2861 138.659 19.6446C138.738 19.5078 138.852 19.4036 138.975 19.3396C139.103 19.2705 139.238 19.2392 139.375 19.2392C139.526 19.2392 139.676 19.2783 139.808 19.3578L139.817 19.3618L139.828 19.3696C140.068 19.5455 140.219 19.8142 140.219 20.1091C140.219 20.2588 140.179 20.4114 140.097 20.5494L140.094 20.5548L140.091 20.5572C139.556 21.4075 138.827 22.183 137.961 22.745C137.094 23.308 136.088 23.6651 135.009 23.6651H134.435C132.756 23.6534 131.236 22.9441 130.142 21.8101C129.05 20.6799 128.377 19.1271 128.377 17.4209C128.377 15.6857 129.055 14.1108 130.157 12.9713C131.258 11.8333 132.787 11.1293 134.482 11.1293C136.099 11.1293 137.552 11.772 138.629 12.8242C139.705 13.8761 140.408 15.3373 140.534 16.9812L140.538 16.9933ZM101.269 5.97992C101.036 5.97992 100.822 6.07775 100.668 6.23153C100.514 6.38421 100.416 6.59928 100.416 6.83258V22.8154C100.416 23.0486 100.514 23.2623 100.668 23.4137C100.822 23.5646 101.036 23.6651 101.269 23.6651C101.753 23.6651 102.145 23.2844 102.147 22.8154V6.83258C102.145 6.36198 101.753 5.97992 101.269 5.97992ZM45.4825 17.0921C44.7935 16.7675 44.0122 16.5277 43.2323 16.2697C42.5148 16.0272 41.7868 15.821 41.2676 15.55C41.0068 15.4104 40.8033 15.2632 40.6717 15.0976C40.5371 14.9323 40.4719 14.7639 40.4679 14.5344C40.4694 14.2203 40.5607 13.9674 40.7146 13.7431C40.948 13.4081 41.3393 13.1473 41.7672 12.9789C42.1899 12.81 42.6478 12.7303 42.9751 12.7303C43.943 12.7317 44.5549 13.0537 45.0246 13.3872C45.2566 13.5555 45.4525 13.7261 45.6378 13.8669C45.7329 13.9401 45.8216 14.0066 45.9248 14.0558C46.0223 14.1042 46.1372 14.1434 46.2625 14.1434C46.342 14.1434 46.4218 14.129 46.4945 14.0978C46.5715 14.0667 46.6383 14.0221 46.7022 13.9674C46.7647 13.9089 46.8184 13.8384 46.8561 13.76C46.89 13.6792 46.9057 13.5959 46.9057 13.5138C46.9057 13.3624 46.8572 13.2204 46.7881 13.0871C46.659 12.8527 46.4605 12.6286 46.2077 12.4043C45.8321 12.0706 45.3364 11.7525 44.8028 11.5128C44.2678 11.2729 43.694 11.1097 43.1474 11.1097C41.8807 11.1097 40.8229 11.3965 40.0545 11.9248C39.6539 12.201 39.3018 12.5034 39.0528 12.9207C38.7996 13.3391 38.6586 13.8553 38.6405 14.5266C38.6393 14.5566 38.6393 14.5866 38.6393 14.6165C38.6367 15.2684 38.8466 15.8057 39.1765 16.2265C39.6776 16.8603 40.4212 17.2395 41.1504 17.5081C41.8784 17.7766 42.606 17.9369 43.0652 18.0907C43.7122 18.3059 44.3997 18.5391 44.9005 18.8481C45.1499 19.0059 45.352 19.1755 45.4891 19.3618C45.6223 19.5535 45.6975 19.7515 45.7003 20.0019V20.0203C45.6989 20.3826 45.5923 20.6668 45.4159 20.9105C45.1499 21.273 44.7077 21.5388 44.2378 21.707C43.7697 21.8714 43.2831 21.9407 42.9699 21.9407C41.8651 21.9407 41.1257 21.6745 40.5895 21.4075C40.3206 21.273 40.1028 21.14 39.9057 21.0277C39.808 20.9744 39.7167 20.9249 39.6202 20.8857C39.5263 20.8468 39.4259 20.8216 39.3125 20.8216C39.2433 20.8216 39.1678 20.8336 39.0984 20.8607C39.028 20.8909 38.9641 20.9327 38.9104 20.9834C38.8361 21.0555 38.771 21.136 38.7254 21.2286C38.6811 21.3214 38.6587 21.419 38.6587 21.5207C38.6587 21.6877 38.7212 21.8403 38.8102 21.9783C38.9497 22.1776 39.1545 22.3563 39.4101 22.5349C39.6736 22.7109 39.9881 22.8844 40.3506 23.0552C41.1543 23.4345 42.1847 23.6326 42.9675 23.6455H42.9699C44.1873 23.6455 45.2384 23.3653 46.1242 22.7137V22.7121H46.1254C46.9915 22.0603 47.5304 21.0916 47.5304 19.9979C47.5304 19.3969 47.3895 18.8873 47.1431 18.4702C46.7714 17.8379 46.1672 17.4209 45.4825 17.0921ZM114.134 17.3973C114.134 16.1156 113.65 14.9672 112.876 14.1384C112.104 13.3117 111.043 12.81 109.884 12.8072C108.733 12.8072 107.677 13.3117 106.896 14.1384C106.122 14.9672 105.631 16.1156 105.631 17.3973C105.631 18.6776 106.122 19.8185 106.896 20.6407C107.673 21.4634 108.733 21.9587 109.884 21.9587C111.046 21.9587 112.107 21.4634 112.879 20.6435C113.65 19.8185 114.134 18.6787 114.134 17.3973ZM115.584 11.3668C115.742 11.5192 115.839 11.7397 115.839 11.9779V22.8154C115.839 23.0486 115.74 23.2623 115.59 23.4137C115.435 23.5646 115.223 23.6651 114.988 23.6651C114.754 23.6651 114.538 23.5646 114.386 23.4137C114.233 23.2623 114.134 23.0486 114.134 22.8154V21.7579C113.06 22.917 111.552 23.6651 109.884 23.6651C108.223 23.6651 106.728 22.9521 105.657 21.8101C104.583 20.6735 103.925 19.1075 103.925 17.3973C103.925 15.6871 104.583 14.1198 105.657 12.982C106.728 11.8411 108.223 11.1293 109.884 11.1293C111.551 11.1293 113.06 11.8558 114.134 13.009V11.9779C114.134 11.7397 114.232 11.5192 114.389 11.3668C114.547 11.2168 114.76 11.1293 114.988 11.1293C115.213 11.1293 115.43 11.2168 115.584 11.3668ZM127.629 12.4657C127.798 12.2975 127.89 12.0744 127.89 11.8528C127.89 11.6352 127.798 11.4172 127.627 11.2594H127.629C127.627 11.2545 127.623 11.2545 127.623 11.2545C127.622 11.2505 127.62 11.2491 127.62 11.2491H127.617C127.452 11.0875 127.241 10.9988 127.024 10.9988C126.803 10.9988 126.587 11.0905 126.423 11.2545L119.753 17.7506V6.83258C119.753 6.36198 119.36 5.97992 118.875 5.97992C118.642 5.97992 118.428 6.07775 118.276 6.23153C118.124 6.38421 118.022 6.59928 118.022 6.83258V22.8154C118.022 23.0486 118.124 23.2623 118.276 23.4137C118.428 23.5646 118.642 23.6651 118.875 23.6651C119.36 23.6651 119.753 23.2844 119.753 22.8154V20.1779L121.925 18.0101L126.353 23.3484C126.437 23.471 126.55 23.5554 126.662 23.6001C126.79 23.6483 126.914 23.6651 127.024 23.6651C127.177 23.6651 127.392 23.6326 127.581 23.484L127.592 23.4776L127.603 23.4656C127.78 23.2911 127.881 23.059 127.881 22.8216C127.881 22.6221 127.808 22.4188 127.671 22.2561V22.2535L123.163 16.7779L127.624 12.4657H127.629ZM97.7494 6.0179H97.5595C97.5341 6.0179 97.5095 6.02045 97.4832 6.02146C97.4605 6.02045 97.435 6.0179 97.4105 6.0179C96.9189 6.0179 96.4409 6.07375 95.9948 6.22242C95.5549 6.36835 95.1497 6.60967 94.8353 6.97597L94.8344 6.97451L94.8335 6.97597V6.97715C94.5081 7.33826 94.2937 7.76988 94.1638 8.26025C94.0329 8.75291 93.9793 9.30814 93.9747 9.93908V11.1609H92.6272C92.1592 11.1634 91.7871 11.5376 91.7871 11.9899C91.7845 12.2335 91.8793 12.4579 92.0338 12.6197C92.1892 12.7787 92.4009 12.8829 92.6372 12.8959H93.9747V22.836L93.9729 22.8594C93.9729 23.0927 94.0711 23.3078 94.2292 23.4618C94.3855 23.613 94.6045 23.7029 94.8435 23.7029C95.2978 23.7005 95.6703 23.3302 95.6713 22.8594V12.8959H97.1206C97.3541 12.8829 97.5695 12.785 97.724 12.6273C97.8812 12.4697 97.9784 12.2482 97.9784 12.0081V11.9757C97.973 11.5284 97.5986 11.1609 97.1297 11.1609H95.6713V9.94427C95.6813 9.40607 95.7367 9.00315 95.8176 8.71C95.8957 8.41521 96.0029 8.23001 96.0992 8.11541C96.1937 8.01375 96.3164 7.92884 96.5154 7.86089C96.7162 7.79602 96.9943 7.7543 97.3705 7.7543H97.4141C97.4368 7.7543 97.4605 7.75029 97.4814 7.75029C97.5068 7.75029 97.5313 7.7543 97.5595 7.7543H97.6685H97.7494C98.231 7.7543 98.6181 7.36587 98.6181 6.88588C98.6181 6.40634 98.231 6.0179 97.7494 6.0179ZM11.8338 17.9615C11.9029 17.7438 11.9316 17.5195 11.9265 17.298C11.9185 17.1376 11.8977 16.9775 11.8521 16.8171C11.715 16.3191 11.3902 15.8743 10.9036 15.5939L3.98207 11.5998C3.00498 11.0377 1.75931 11.3719 1.19854 12.347C0.632346 13.3207 0.966304 14.5642 1.94339 15.1276L5.81117 17.3631L1.94339 19.5925C0.966304 20.1569 0.633527 21.4006 1.19854 22.3783C1.75931 23.3507 3.00498 23.6833 3.98207 23.1213L10.9036 19.1246C11.3707 18.8559 11.6877 18.4346 11.8338 17.9615ZM13.7121 21.7044C13.3145 21.6705 12.901 21.7539 12.529 21.9704L5.6023 25.9619C4.6278 26.5252 4.29502 27.7753 4.85744 28.7506C5.42245 29.7232 6.66695 30.0582 7.64003 29.4924L11.5207 27.2552V31.7255C11.5207 32.8518 12.4325 33.7643 13.5609 33.7643C14.6839 33.7643 15.5984 32.8518 15.5984 31.7255V23.734C15.5984 22.661 14.7662 21.7799 13.7121 21.7044ZM20.8058 13.0192C21.2022 13.052 21.6146 12.9673 21.9865 12.7534L28.9118 8.7581C29.8878 8.19466 30.2189 6.94973 29.6579 5.9719C29.0957 4.99844 27.85 4.66448 26.8755 5.22755L22.9973 7.46726V2.99549C22.9973 1.87236 22.0856 0.959564 20.9572 0.959564C19.8289 0.959564 18.9195 1.87236 18.9195 2.99549V10.9871C18.9195 12.0588 19.7493 12.9414 20.8058 13.0192ZM5.6023 8.7581L12.529 12.7534C12.901 12.9673 13.3145 13.052 13.7121 13.0192C14.7662 12.9414 15.5984 12.0588 15.5984 10.9871V2.99549C15.5984 1.87236 14.6839 0.959564 13.5609 0.959564C12.4325 0.959564 11.5207 1.87236 11.5207 2.99549V7.46726L7.64003 5.22755C6.66695 4.66448 5.42245 4.99844 4.85744 5.9719C4.29502 6.94973 4.6278 8.19466 5.6023 8.7581ZM18.6195 17.3464C18.6195 17.2303 18.5492 17.0685 18.4671 16.9827L17.6335 16.1533C17.5514 16.0715 17.3895 16.0036 17.2732 16.0036H17.2408C17.1247 16.0036 16.963 16.0715 16.8821 16.1533L16.0484 16.9827C15.9649 17.0685 15.901 17.2303 15.901 17.3464V17.3789C15.901 17.4936 15.9649 17.6539 16.0484 17.7374L16.8821 18.5691C16.9642 18.6511 17.1247 18.7188 17.2408 18.7188H17.2732C17.3895 18.7188 17.5514 18.6511 17.6335 18.5691L18.4671 17.7374C18.5492 17.6539 18.6195 17.4936 18.6195 17.3789V17.3464ZM20.9207 18.1441L18.0418 21.0176C17.9594 21.102 17.8004 21.1712 17.6804 21.1712H17.4716H17.0463H16.8339C16.7175 21.1712 16.5558 21.102 16.4723 21.0176L13.5949 18.1441C13.5125 18.0632 13.446 17.9004 13.446 17.7855V17.573V17.148V16.9383C13.446 16.8209 13.5125 16.6578 13.5949 16.5758L16.4723 13.7026C16.5558 13.6178 16.7175 13.5513 16.8339 13.5513H17.0463H17.4716H17.6804C17.7977 13.5513 17.9594 13.6178 18.0418 13.7026L20.9207 16.5758C21.0028 16.6578 21.0694 16.8209 21.0694 16.9383V17.148V17.573V17.7855C21.0694 17.9004 21.0028 18.0632 20.9207 18.1441ZM28.9118 25.9619L21.9865 21.9704C21.6146 21.7539 21.2022 21.6705 20.8058 21.7044C19.7493 21.7799 18.9195 22.661 18.9195 23.734V31.7255C18.9195 32.8518 19.8289 33.7643 20.9572 33.7643C22.0856 33.7643 22.9973 32.8518 22.9973 31.7255V27.2552L26.8755 29.4924C27.8498 30.0582 29.0957 29.7232 29.6579 28.7506C30.2189 27.7753 29.8878 26.5252 28.9118 25.9619ZM32.5736 15.1276L28.7056 17.3631L32.5736 19.5925C33.5504 20.1569 33.8843 21.4006 33.3196 22.3783C32.756 23.3507 31.5091 23.6833 30.5358 23.1213L23.6091 19.1246C23.1472 18.8559 22.8265 18.4346 22.6842 17.9615C22.6164 17.7438 22.585 17.5195 22.5929 17.298C22.5969 17.1376 22.6202 16.9775 22.6646 16.8171C22.8031 16.3191 23.1279 15.8746 23.6091 15.5939L30.5358 11.5998C31.5091 11.0377 32.756 11.3719 33.3196 12.347C33.8843 13.3207 33.5504 14.5642 32.5736 15.1276ZM144.899 11.1406C144.899 12.2611 144.149 13.1963 142.895 13.1963C141.65 13.1963 140.908 12.2522 140.908 11.1406C140.908 10.02 141.65 9.08459 142.895 9.08459C144.149 9.08459 144.899 10.02 144.899 11.1406ZM144.502 11.1406C144.502 10.1877 143.866 9.46383 142.895 9.46383C141.941 9.46383 141.305 10.1521 141.305 11.1406C141.305 12.0845 141.941 12.8168 142.895 12.8168C143.866 12.8168 144.502 12.0934 144.502 11.1406ZM142.109 10.2139H142.965C143.433 10.2139 143.742 10.4698 143.742 10.8667C143.742 11.114 143.619 11.2991 143.433 11.4139L143.769 11.8991V11.9963H143.284L142.956 11.5285H142.577V11.9963H142.109V10.2139ZM142.956 10.6464H142.577V11.114H142.956C143.133 11.114 143.248 11.0344 143.248 10.8847C143.248 10.7257 143.142 10.6464 142.956 10.6464Z" fill="#E0E1E2"/>
</svg>
