<svg width="580" height="46" viewBox="0 0 580 46" fill="none" xmlns="http://www.w3.org/2000/svg">
<path d="M20 0.5H560C570.77 0.5 579.5 9.23045 579.5 20V45.5H0.5V20C0.5 9.23045 9.23045 0.5 20 0.5Z" fill="#C4B0FF" stroke="#0B0D0F"/>
<path d="M501.375 18.625L504 16L506.625 18.625" stroke="#0B0D0F" stroke-linecap="round" stroke-linejoin="round"/>
<path d="M504 23V16" stroke="#0B0D0F" stroke-linecap="round" stroke-linejoin="round"/>
<path d="M507 21H508.5C508.633 21 508.76 21.0527 508.854 21.1464C508.947 21.2402 509 21.3674 509 21.5V24.75V28C509 28.1326 508.947 28.2598 508.854 28.3536C508.76 28.4473 508.633 28.5 508.5 28.5H499.5C499.367 28.5 499.24 28.4473 499.146 28.3536C499.053 28.2598 499 28.1326 499 28V21.5C499 21.3674 499.053 21.2402 499.146 21.1464C499.24 21.0527 499.367 21 499.5 21H501" stroke="#0B0D0F" stroke-linecap="round" stroke-linejoin="round"/>
<path d="M522.5 23H533.5" stroke="#0B0D0F" stroke-linecap="round" stroke-linejoin="round"/>
<path d="M528 17.5V28.5" stroke="#0B0D0F" stroke-linecap="round" stroke-linejoin="round"/>
<path d="M549.5 25.5H547.5C546.948 25.5 546.5 25.0523 546.5 24.5V18.5C546.5 17.9477 546.948 17.5 547.5 17.5H553.5C554.052 17.5 554.5 17.9477 554.5 18.5V20.5" stroke="#0B0D0F" stroke-linecap="round" stroke-linejoin="round"/>
<path d="M550.5 20.5H556.5C557.052 20.5 557.5 20.9477 557.5 21.5V27.5C557.5 28.0523 557.052 28.5 556.5 28.5H550.5C549.948 28.5 549.5 28.0523 549.5 27.5V21.5C549.5 20.9477 549.948 20.5 550.5 20.5Z" stroke="#0B0D0F" stroke-linecap="round" stroke-linejoin="round"/>
<circle cx="26" cy="23" r="5.5" fill="black" fill-opacity="0.1" stroke="#0B0D0F"/>
<circle cx="44" cy="23" r="5.5" fill="black" fill-opacity="0.1" stroke="#0B0D0F"/>
<circle cx="62" cy="23" r="5.5" fill="black" fill-opacity="0.1" stroke="#0B0D0F"/>
<rect x="149" y="14" width="281" height="18" rx="5" fill="white" fill-opacity="0.5" stroke="#0B0D0F"/>
</svg>
