<svg width="18" height="20" viewBox="0 0 18 20" fill="none" xmlns="http://www.w3.org/2000/svg">
<g clip-path="url(#clip0_2490_13100)">
<path fill-rule="evenodd" clip-rule="evenodd" d="M7.64645 0.646447C7.84171 0.451184 8.15829 0.451184 8.35355 0.646447L12.3536 4.64645C12.5488 4.84171 12.5488 5.15829 12.3536 5.35355L8.35355 9.35355C8.15829 9.54882 7.84171 9.54882 7.64645 9.35355C7.45118 9.15829 7.45118 8.84171 7.64645 8.64645L10.7929 5.5H1C0.723858 5.5 0.5 5.27614 0.5 5C0.5 4.72386 0.723858 4.5 1 4.5H10.7929L7.64645 1.35355C7.45118 1.15829 7.45118 0.841709 7.64645 0.646447ZM12.6464 10.6464C12.8417 10.4512 13.1583 10.4512 13.3536 10.6464L17.3536 14.6464C17.5488 14.8417 17.5488 15.1583 17.3536 15.3536L13.3536 19.3536C13.1583 19.5488 12.8417 19.5488 12.6464 19.3536C12.4512 19.1583 12.4512 18.8417 12.6464 18.6464L15.7929 15.5H1C0.723858 15.5 0.5 15.2761 0.5 15C0.5 14.7239 0.723858 14.5 1 14.5H15.7929L12.6464 11.3536C12.4512 11.1583 12.4512 10.8417 12.6464 10.6464Z" fill="black"/>
</g>
<defs>
<clipPath id="clip0_2490_13100">
<rect width="18" height="20" fill="white"/>
</clipPath>
</defs>
</svg>
