<svg width="31" height="31" viewBox="0 0 31 31" fill="none" xmlns="http://www.w3.org/2000/svg">
<path fill-rule="evenodd" clip-rule="evenodd" d="M9.12725 1.71191H21.7264C23.0338 1.71191 23.9336 1.71191 24.6908 1.97416C25.3984 2.22407 26.0389 2.63384 26.5624 3.17161C27.0859 3.70938 27.4783 4.36065 27.7091 5.07478C27.9611 5.84222 27.9598 6.75492 27.9598 8.10855V26.2958C27.9598 28.1803 25.7397 29.3013 24.2781 27.9631C24.2312 27.9182 24.1688 27.8932 24.1039 27.8932C24.039 27.8932 23.9767 27.9182 23.9298 27.9631L23.3076 28.5313C22.1146 29.6239 20.3072 29.6239 19.1143 28.5313C18.8984 28.3297 18.614 28.2175 18.3186 28.2175C18.0232 28.2175 17.7388 28.3297 17.5228 28.5313C16.3299 29.6239 14.5225 29.6239 13.3295 28.5313C13.1136 28.3297 12.8292 28.2175 12.5338 28.2175C12.2384 28.2175 11.954 28.3297 11.7381 28.5313C10.5452 29.6239 8.73774 29.6239 7.5448 28.5313L6.9239 27.9631C6.87695 27.9178 6.81428 27.8926 6.74907 27.8926C6.68387 27.8926 6.6212 27.9178 6.57425 27.9631C5.11263 29.3 2.89258 28.1803 2.89258 26.2958V8.10984C2.89258 6.75493 2.89258 5.84222 3.14325 5.07478C3.37396 4.3606 3.76633 3.70929 4.28984 3.17151C4.81335 2.63372 5.45389 2.22398 6.1616 1.97416C6.92004 1.71063 7.81989 1.71191 9.12725 1.71191ZM9.31493 3.64016C7.74533 3.64016 7.20414 3.65302 6.79535 3.79571C6.36823 3.94843 5.98205 4.19755 5.66681 4.52371C5.35157 4.84988 5.11575 5.24431 4.97766 5.67639C4.83497 6.11089 4.8234 6.68422 4.8234 8.29367V26.2958C4.8234 26.4501 4.89924 26.5426 4.99565 26.5876C5.03964 26.6086 5.08868 26.6166 5.13706 26.6107C5.18924 26.6023 5.23741 26.5776 5.27461 26.54C5.67686 26.1697 6.20362 25.9642 6.75036 25.9642C7.2971 25.9642 7.82386 26.1697 8.22611 26.54L8.84701 27.1082C9.06293 27.3098 9.34732 27.422 9.64273 27.422C9.93814 27.422 10.2225 27.3098 10.4385 27.1082C11.0098 26.5818 11.7582 26.2896 12.5351 26.2896C13.312 26.2896 14.0604 26.5818 14.6318 27.1082C14.8477 27.3098 15.1321 27.422 15.4275 27.422C15.7229 27.422 16.0073 27.3098 16.2232 27.1082C16.7945 26.5818 17.543 26.2896 18.3198 26.2896C19.0967 26.2896 19.8452 26.5818 20.4165 27.1082C20.6324 27.3098 20.9168 27.422 21.2122 27.422C21.5076 27.422 21.792 27.3098 22.0079 27.1082L22.6288 26.54C23.0311 26.1697 23.5578 25.9642 24.1046 25.9642C24.6513 25.9642 25.1781 26.1697 25.5803 26.54C25.6356 26.5915 25.6832 26.6069 25.7192 26.6107C25.7671 26.6163 25.8157 26.6083 25.8593 26.5876C25.9557 26.5426 26.0328 26.4488 26.0328 26.2958V8.29367C26.0328 6.68422 26.02 6.11089 25.8786 5.67511C25.7401 5.243 25.5038 4.84864 25.1881 4.52269C24.8724 4.19674 24.4858 3.94797 24.0583 3.79571C23.6508 3.6543 23.1096 3.64145 21.54 3.64145L9.31493 3.64016ZM8.03586 9.74628C8.03586 9.49058 8.13743 9.24535 8.31824 9.06454C8.49905 8.88373 8.74428 8.78216 8.99998 8.78216H9.64273C9.89843 8.78216 10.1437 8.88373 10.3245 9.06454C10.5053 9.24535 10.6069 9.49058 10.6069 9.74628C10.6069 10.002 10.5053 10.2472 10.3245 10.428C10.1437 10.6088 9.89843 10.7104 9.64273 10.7104H8.99998C8.74428 10.7104 8.49905 10.6088 8.31824 10.428C8.13743 10.2472 8.03586 10.002 8.03586 9.74628ZM12.5351 9.74628C12.5351 9.49058 12.6367 9.24535 12.8175 9.06454C12.9983 8.88373 13.2435 8.78216 13.4992 8.78216H21.855C22.1107 8.78216 22.3559 8.88373 22.5367 9.06454C22.7175 9.24535 22.8191 9.49058 22.8191 9.74628C22.8191 10.002 22.7175 10.2472 22.5367 10.428C22.3559 10.6088 22.1107 10.7104 21.855 10.7104H13.4992C13.2435 10.7104 12.9983 10.6088 12.8175 10.428C12.6367 10.2472 12.5351 10.002 12.5351 9.74628ZM8.03586 14.2455C8.03586 13.9898 8.13743 13.7446 8.31824 13.5638C8.49905 13.383 8.74428 13.2814 8.99998 13.2814H9.64273C9.89843 13.2814 10.1437 13.383 10.3245 13.5638C10.5053 13.7446 10.6069 13.9898 10.6069 14.2455C10.6069 14.5012 10.5053 14.7465 10.3245 14.9273C10.1437 15.1081 9.89843 15.2096 9.64273 15.2096H8.99998C8.74428 15.2096 8.49905 15.1081 8.31824 14.9273C8.13743 14.7465 8.03586 14.5012 8.03586 14.2455ZM12.5351 14.2455C12.5351 13.9898 12.6367 13.7446 12.8175 13.5638C12.9983 13.383 13.2435 13.2814 13.4992 13.2814H21.855C22.1107 13.2814 22.3559 13.383 22.5367 13.5638C22.7175 13.7446 22.8191 13.9898 22.8191 14.2455C22.8191 14.5012 22.7175 14.7465 22.5367 14.9273C22.3559 15.1081 22.1107 15.2096 21.855 15.2096H13.4992C13.2435 15.2096 12.9983 15.1081 12.8175 14.9273C12.6367 14.7465 12.5351 14.5012 12.5351 14.2455ZM8.03586 18.7448C8.03586 18.4891 8.13743 18.2438 8.31824 18.063C8.49905 17.8822 8.74428 17.7806 8.99998 17.7806H9.64273C9.89843 17.7806 10.1437 17.8822 10.3245 18.063C10.5053 18.2438 10.6069 18.4891 10.6069 18.7448C10.6069 19.0005 10.5053 19.2457 10.3245 19.4265C10.1437 19.6073 9.89843 19.7089 9.64273 19.7089H8.99998C8.74428 19.7089 8.49905 19.6073 8.31824 19.4265C8.13743 19.2457 8.03586 19.0005 8.03586 18.7448ZM12.5351 18.7448C12.5351 18.4891 12.6367 18.2438 12.8175 18.063C12.9983 17.8822 13.2435 17.7806 13.4992 17.7806H21.855C22.1107 17.7806 22.3559 17.8822 22.5367 18.063C22.7175 18.2438 22.8191 18.4891 22.8191 18.7448C22.8191 19.0005 22.7175 19.2457 22.5367 19.4265C22.3559 19.6073 22.1107 19.7089 21.855 19.7089H13.4992C13.2435 19.7089 12.9983 19.6073 12.8175 19.4265C12.6367 19.2457 12.5351 19.0005 12.5351 18.7448Z" fill="white"/>
</svg>
