<svg width="24" height="24" viewBox="0 0 24 24" fill="none" xmlns="http://www.w3.org/2000/svg">
<path d="M23 15.9697C23 19.8397 19.87 22.9697 16 22.9697L17.05 21.2197" stroke="#292D32" stroke-width="1.5" stroke-linecap="round" stroke-linejoin="round"/>
<path d="M1 7.96973C1 4.09973 4.13 0.969727 8 0.969727L6.95 2.71973" stroke="#292D32" stroke-width="1.5" stroke-linecap="round" stroke-linejoin="round"/>
<path d="M6.62012 13.0703H9.43012C10.0501 13.0703 10.5601 13.6303 10.5601 14.2003C10.5601 14.8203 10.0601 15.3303 9.43012 15.3303H6.62012V13.0703Z" stroke="#292D32" stroke-width="1.5" stroke-miterlimit="10" stroke-linecap="round" stroke-linejoin="round"/>
<path d="M6.62012 15.3301H9.84012C10.5501 15.3301 11.1301 15.8301 11.1301 16.4601C11.1301 17.0801 10.5501 17.5901 9.84012 17.5901H6.62012V15.3301Z" stroke="#292D32" stroke-width="1.5" stroke-miterlimit="10" stroke-linecap="round" stroke-linejoin="round"/>
<path d="M8.42017 17.5801V18.7001" stroke="#292D32" stroke-width="1.5" stroke-miterlimit="10" stroke-linecap="round" stroke-linejoin="round"/>
<path d="M8.42017 11.9502V13.0702" stroke="#292D32" stroke-width="1.5" stroke-miterlimit="10" stroke-linecap="round" stroke-linejoin="round"/>
<path d="M14.85 15.3302C14.85 18.7402 12.09 21.5002 8.68001 21.5002C5.27001 21.5002 2.51001 18.7402 2.51001 15.3302C2.51001 11.9202 5.27001 9.16016 8.68001 9.16016C8.84001 9.16016 8.99001 9.17018 9.16001 9.18018C12.19 9.41018 14.61 11.8302 14.84 14.8602C14.84 15.0102 14.85 15.1602 14.85 15.3302Z" stroke="#292D32" stroke-width="1.5" stroke-miterlimit="10" stroke-linecap="round" stroke-linejoin="round"/>
<path d="M21.4999 8.66998C21.4999 12.08 18.7399 14.84 15.3299 14.84H14.8399C14.6099 11.81 12.1899 9.38997 9.15991 9.15997V8.66998C9.15991 5.25998 11.9199 2.5 15.3299 2.5C18.7399 2.5 21.4999 5.25998 21.4999 8.66998Z" stroke="#292D32" stroke-width="1.5" stroke-miterlimit="10" stroke-linecap="round" stroke-linejoin="round"/>
</svg>
