<svg width="24" height="24" viewBox="0 0 24 24" fill="none" xmlns="http://www.w3.org/2000/svg">
<path d="M21.9 13.9602C22.17 15.6302 21.7 17.4202 20.27 18.6802C19.28 19.5902 17.98 20.0902 16.63 20.0802H5.54C0.870003 19.7402 0.860003 12.9402 5.54 12.6002H5.59C3.4 6.47023 9.09 2.87022 13.38 4.25022" stroke="#292D32" stroke-width="1.5" stroke-miterlimit="10" stroke-linecap="round" stroke-linejoin="round"/>
<path d="M7.26003 13.0101C6.74003 12.7501 6.17003 12.6101 5.59003 12.6001" stroke="#292D32" stroke-width="1.5" stroke-miterlimit="10" stroke-linecap="round" stroke-linejoin="round"/>
<path d="M21.97 8.5C21.97 9.6 21.46 10.59 20.65 11.23C20.06 11.71 19.29 12 18.47 12C16.54 12 14.97 10.43 14.97 8.5C14.97 7.54 15.36 6.67 16 6.04V6.03C16.63 5.39 17.51 5 18.47 5C20.4 5 21.97 6.57 21.97 8.5Z" stroke="#292D32" stroke-width="1.5" stroke-miterlimit="10" stroke-linecap="round" stroke-linejoin="round"/>
</svg>
