<svg width="24" height="24" viewBox="0 0 24 24" fill="none" xmlns="http://www.w3.org/2000/svg">
<path d="M20.27 18.6801C19.28 19.5901 17.98 20.0901 16.63 20.0801H5.54C0.870003 19.7401 0.860003 12.9401 5.54 12.6001H5.59C2.89 5.06014 12.12 1.34014 16 6.03014V6.04014C16.7 6.90014 17.23 8.04014 17.47 9.49014C18.8 9.66014 19.88 10.3101 20.65 11.2301C22.4 13.3001 22.55 16.6801 20.27 18.6801Z" stroke="#292D32" stroke-width="1.5" stroke-miterlimit="10" stroke-linecap="round" stroke-linejoin="round"/>
<path d="M7.26 13.0101C6.74 12.7501 6.17 12.6101 5.59 12.6001" stroke="#292D32" stroke-width="1.5" stroke-miterlimit="10" stroke-linecap="round" stroke-linejoin="round"/>
<path d="M15.85 9.91977C16.37 9.65977 16.94 9.51977 17.52 9.50977" stroke="#292D32" stroke-width="1.5" stroke-miterlimit="10" stroke-linecap="round" stroke-linejoin="round"/>
<path d="M21.97 8.5C21.97 9.6 21.46 10.59 20.65 11.23C19.88 10.31 18.8 9.66 17.47 9.49C17.23 8.04 16.7 6.9 16 6.04V6.03C16.63 5.39 17.51 5 18.47 5C20.4 5 21.97 6.57 21.97 8.5Z" stroke="#292D32" stroke-width="1.5" stroke-miterlimit="10" stroke-linecap="round" stroke-linejoin="round"/>
</svg>
