<svg width="24" height="24" viewBox="0 0 24 24" fill="none" xmlns="http://www.w3.org/2000/svg">
<path d="M8.68006 12.7201H10.4201V16.7701C10.4201 17.3701 11.1601 17.6501 11.5601 17.2001L15.8201 12.3601C16.1901 11.9401 15.8901 11.2801 15.3301 11.2801H13.5901V7.23008C13.5901 6.63008 12.8501 6.35008 12.4501 6.80008L8.19006 11.6401C7.82006 12.0601 8.12006 12.7201 8.68006 12.7201Z" stroke="#292D32" stroke-width="1.5" stroke-miterlimit="10" stroke-linecap="round" stroke-linejoin="round"/>
<path d="M11.9702 22C17.4931 22 21.9702 17.5228 21.9702 12C21.9702 6.47715 17.4931 2 11.9702 2C6.44737 2 1.97021 6.47715 1.97021 12C1.97021 17.5228 6.44737 22 11.9702 22Z" stroke="#292D32" stroke-width="1.5" stroke-miterlimit="10" stroke-linecap="round" stroke-linejoin="round"/>
</svg>
