<svg width="24" height="24" viewBox="0 0 24 24" fill="none" xmlns="http://www.w3.org/2000/svg">
<path d="M21.68 16.9599L18.55 9.64988C17.49 7.16988 15.54 7.06988 14.23 9.42988L12.34 12.8399C11.38 14.5699 9.59005 14.7199 8.35005 13.1699L8.13005 12.8899C6.84005 11.2699 5.02005 11.4699 4.09005 13.3199L2.37005 16.7699C1.16005 19.1699 2.91005 21.9999 5.59005 21.9999H18.35C20.95 21.9999 22.7 19.3499 21.68 16.9599Z" stroke="#292D32" stroke-width="1.5" stroke-linecap="round" stroke-linejoin="round"/>
<path d="M6.96997 8C8.62682 8 9.96997 6.65685 9.96997 5C9.96997 3.34315 8.62682 2 6.96997 2C5.31312 2 3.96997 3.34315 3.96997 5C3.96997 6.65685 5.31312 8 6.96997 8Z" stroke="#292D32" stroke-width="1.5" stroke-linecap="round" stroke-linejoin="round"/>
</svg>
