 <svg className="-ml-36" width="562" height="272" viewBox="0 0 562 272" fill="none" xmlns="http://www.w3.org/2000/svg">
                    <path d="M138.696 0.795624C156.829 0.795624 173.376 3.44011 188.336 8.72907C203.296 13.8669 216.745 20.5159 228.683 28.676C240.772 36.8361 251.35 45.2984 260.417 54.063C264.648 57.9919 268.351 61.7698 271.524 65.3965C274.848 68.8721 278.097 72.4232 281.271 76.0499C284.142 72.4232 287.164 68.8721 290.337 65.3965C293.511 61.9209 297.289 58.143 301.671 54.063C315.422 40.765 332.498 28.6004 352.898 17.5692C373.45 6.38681 397.099 0.795624 423.846 0.795624C449.233 0.795624 472.353 6.91571 493.207 19.1559C514.06 31.396 530.607 47.7918 542.847 68.3432C555.239 88.8946 561.434 111.562 561.434 136.344C561.434 155.082 557.883 172.687 550.781 189.158C543.679 205.629 533.781 220.061 521.087 232.452C508.545 244.843 493.962 254.515 477.34 261.466C460.718 268.417 442.886 271.893 423.846 271.893C405.712 271.893 389.165 269.399 374.205 264.412C359.245 259.275 345.796 252.777 333.858 244.919C321.92 237.061 311.418 228.901 302.351 220.439C297.818 216.056 293.889 212.052 290.564 208.425C287.24 204.798 284.142 201.172 281.271 197.545C277.946 201.323 274.622 205.101 271.297 208.878C267.973 212.505 264.195 216.358 259.964 220.439C251.199 228.599 240.848 236.683 228.91 244.692C216.972 252.55 203.447 259.048 188.336 264.186C173.376 269.324 156.829 271.893 138.696 271.893C113.309 271.893 90.1882 265.848 69.3346 253.759C48.481 241.519 31.8586 225.199 19.4673 204.798C7.076 184.247 0.880367 161.429 0.880367 136.344C0.880367 117.757 4.43152 100.304 11.5338 83.9834C18.6362 67.6632 28.4585 53.3074 41.0009 40.9162C53.6944 28.3738 68.3524 18.5514 84.9748 11.4491C101.748 4.34678 119.655 0.795624 138.696 0.795624ZM74.7747 136.344C74.7747 147.829 77.6458 158.331 83.3881 167.851C89.1304 177.22 96.8372 184.7 106.508 190.291C116.18 195.732 126.909 198.452 138.696 198.452C152.447 198.452 164.989 195.58 176.323 189.838C187.807 183.945 198.687 176.238 208.963 166.718C215.008 161.127 220.145 155.762 224.377 150.624C228.608 145.335 232.235 140.575 235.257 136.344C232.083 132.113 228.003 127.202 223.017 121.611C218.181 116.019 213.496 111.108 208.963 106.877C199.443 97.8102 188.79 90.1035 177.003 83.7567C165.216 77.41 152.447 74.2366 138.696 74.2366C126.909 74.2366 116.18 77.1077 106.508 82.85C96.8372 88.4412 89.1304 95.9969 83.3881 105.517C77.6458 114.886 74.7747 125.162 74.7747 136.344ZM487.313 136.344C487.313 125.162 484.442 114.886 478.7 105.517C472.958 95.9969 465.251 88.4412 455.58 82.85C446.06 77.1077 435.482 74.2366 423.846 74.2366C414.477 74.2366 405.561 75.7477 397.099 78.77C388.788 81.6411 380.93 85.5701 373.525 90.5568C366.121 95.3924 359.396 100.832 353.352 106.877C347.912 112.015 342.698 117.53 337.711 123.424C332.876 129.317 329.325 133.624 327.058 136.344C330.534 141.18 334.387 146.091 338.618 151.078C342.849 156.064 347.76 161.278 353.352 166.718C363.325 176.087 374.054 183.718 385.539 189.611C397.023 195.505 409.792 198.452 423.846 198.452C435.482 198.452 446.06 195.732 455.58 190.291C465.251 184.7 472.958 177.22 478.7 167.851C484.442 158.331 487.313 147.829 487.313 136.344Z" fill="#FAFAFA" />
                </svg>