<svg width="24" height="24" viewBox="0 0 24 24" fill="none" xmlns="http://www.w3.org/2000/svg">
<path d="M20.0302 2.47998L4.18018 18.33" stroke="#292D32" stroke-width="1.5" stroke-linecap="round" stroke-linejoin="round"/>
<path d="M5.25008 12.9999C4.83008 12.0299 4.58008 10.9799 4.58008 9.89993C4.58008 4.98993 8.80008 1.11993 13.6001 2.16993C15.0601 2.48993 16.3601 3.26993 17.3601 4.34993" stroke="#292D32" stroke-width="1.5" stroke-linecap="round" stroke-linejoin="round"/>
<path d="M19.0602 7.30005C20.2802 11.18 18.3102 15.08 15.5202 16.87V18.03C15.5202 18.32 15.6202 18.99 14.6202 18.99H9.42016C8.39016 18.99 8.52016 18.56 8.52016 18.03V16.87C8.04016 16.57 7.59016 16.2 7.16016 15.77" stroke="#292D32" stroke-width="1.5" stroke-linecap="round" stroke-linejoin="round"/>
<path d="M8.5 22C10.79 21.35 13.21 21.35 15.5 22" stroke="#292D32" stroke-width="1.5" stroke-linecap="round" stroke-linejoin="round"/>
</svg>
