<svg width="24" height="24" viewBox="0 0 24 24" fill="none" xmlns="http://www.w3.org/2000/svg">
<path d="M8.17997 16.0199C7.41997 15.9499 6.66998 15.5999 6.08998 14.9899C4.76998 13.5999 4.76998 11.3199 6.08998 9.92989L8.27998 7.6299C9.59998 6.2399 11.77 6.2399 13.1 7.6299C14.42 9.0199 14.42 11.2999 13.1 12.6899L12.01 13.8399" stroke="#292D32" stroke-width="1.5" stroke-linecap="round" stroke-linejoin="round"/>
<path d="M15.82 7.97998C16.58 8.04998 17.33 8.39998 17.91 9.00998C19.23 10.4 19.23 12.68 17.91 14.07L15.72 16.37C14.4 17.76 12.23 17.76 10.9 16.37C9.57997 14.98 9.57997 12.7 10.9 11.31L11.99 10.16" stroke="#292D32" stroke-width="1.5" stroke-linecap="round" stroke-linejoin="round"/>
<path d="M9 22H15C20 22 22 20 22 15V9C22 4 20 2 15 2H9C4 2 2 4 2 9V15C2 20 4 22 9 22Z" stroke="#292D32" stroke-width="1.5" stroke-linecap="round" stroke-linejoin="round"/>
</svg>
