<svg width="34" height="33" viewBox="0 0 34 33" fill="none" xmlns="http://www.w3.org/2000/svg">
<path d="M5.15169 24.75C4.51919 24.75 3.99073 24.5382 3.56631 24.1147C3.1419 23.6912 2.92969 23.1628 2.92969 22.5294V10.4706C2.92969 9.83812 3.1419 9.31012 3.56631 8.88662C3.99073 8.46312 4.51873 8.25092 5.15031 8.25H17.2091C17.8416 8.25 18.37 8.46221 18.7944 8.88662C19.2189 9.31104 19.4306 9.8395 19.4297 10.472V22.5294C19.4297 23.1619 19.2179 23.6903 18.7944 24.1147C18.3709 24.5392 17.8425 24.7509 17.2091 24.75H5.15169ZM5.15169 23.375H17.2091C17.4199 23.375 17.6138 23.287 17.7907 23.111C17.9667 22.9341 18.0547 22.7398 18.0547 22.528V10.472C18.0547 10.2603 17.9667 10.0659 17.7907 9.889C17.6147 9.71208 17.4208 9.62408 17.2091 9.625H5.15031C4.93948 9.625 4.74606 9.713 4.57006 9.889C4.39406 10.065 4.3056 10.2589 4.30469 10.4706V22.5294C4.30469 22.7402 4.39315 22.9341 4.57006 23.111C4.74698 23.2879 4.94085 23.3759 5.15169 23.375ZM23.8723 24.75V8.25H25.2473V24.75H23.8723ZM29.6886 24.75V8.25H31.0636V24.75H29.6886Z" fill="#376DC3"/>
</svg>
