<svg width="24" height="24" viewBox="0 0 24 24" fill="none" xmlns="http://www.w3.org/2000/svg">
<path d="M8.3756 15.6162L2.71875 21.273M11.6933 6.64169L10.1324 8.20258C10.0051 8.3299 9.94142 8.39357 9.86889 8.44415C9.80451 8.48905 9.73506 8.52622 9.66199 8.55488C9.57967 8.58717 9.49139 8.60482 9.31482 8.64014L5.65036 9.37303C4.69805 9.56349 4.2219 9.65872 3.99914 9.90977C3.80507 10.1285 3.71645 10.4212 3.75661 10.7108C3.8027 11.0433 4.14606 11.3866 4.83277 12.0733L11.9185 19.1591C12.6052 19.8458 12.9486 20.1891 13.281 20.2352C13.5707 20.2754 13.8634 20.1868 14.0821 19.9927C14.3331 19.7699 14.4283 19.2938 14.6188 18.3415L15.3517 14.677C15.387 14.5005 15.4047 14.4122 15.437 14.3298C15.4656 14.2568 15.5028 14.1873 15.5477 14.123C15.5983 14.0504 15.6619 13.9868 15.7893 13.8594L17.3501 12.2985C17.4316 12.2171 17.4723 12.1764 17.517 12.1409C17.5567 12.1093 17.5988 12.0808 17.6429 12.0557C17.6925 12.0273 17.7454 12.0046 17.8512 11.9593L20.3456 10.8903C21.0733 10.5784 21.4372 10.4225 21.6024 10.1705C21.747 9.95013 21.7987 9.68163 21.7463 9.42335C21.6864 9.12801 21.4065 8.8481 20.8467 8.28827L15.7036 3.14514C15.1437 2.58531 14.8638 2.3054 14.5685 2.24552C14.3102 2.19317 14.0417 2.24488 13.8214 2.38941C13.5694 2.55469 13.4134 2.91854 13.1016 3.64624L12.0326 6.14059C11.9872 6.24641 11.9645 6.29932 11.9362 6.34893C11.911 6.393 11.8825 6.4351 11.8509 6.47484C11.8154 6.51958 11.7747 6.56029 11.6933 6.64169Z" stroke="black" stroke-linecap="round" stroke-linejoin="round"/>
</svg>
