<svg width="24" height="24" viewBox="0 0 24 24" fill="none" xmlns="http://www.w3.org/2000/svg">
<path d="M11.9975 15L11.9975 22M7.9975 7.30813V9.43875C7.9975 9.64677 7.9975 9.75078 7.97708 9.85026C7.95897 9.93852 7.92901 10.0239 7.88802 10.1042C7.84181 10.1946 7.77684 10.2758 7.64689 10.4383L6.07711 12.4005C5.41137 13.2327 5.0785 13.6487 5.07813 13.9989C5.0778 14.3035 5.21626 14.5916 5.45427 14.7815C5.72795 15 6.2608 15 7.3265 15H16.6685C17.7342 15 18.267 15 18.5407 14.7815C18.7787 14.5916 18.9172 14.3035 18.9169 13.9989C18.9165 13.6487 18.5836 13.2327 17.9179 12.4005L16.3481 10.4383C16.2182 10.2758 16.1532 10.1946 16.107 10.1042C16.066 10.0239 16.036 9.93852 16.0179 9.85026C15.9975 9.75078 15.9975 9.64677 15.9975 9.43875V7.30813C15.9975 7.19301 15.9975 7.13544 16.004 7.07868C16.0098 7.02825 16.0194 6.97833 16.0328 6.92937C16.0478 6.87424 16.0692 6.8208 16.1119 6.71391L17.1198 4.19423C17.4138 3.45914 17.5609 3.09159 17.4996 2.79655C17.4459 2.53853 17.2926 2.31211 17.073 2.1665C16.8218 2 16.426 2 15.6342 2H8.36075C7.56904 2 7.17318 2 6.92201 2.1665C6.70236 2.31211 6.54906 2.53853 6.49545 2.79655C6.43414 3.09159 6.58116 3.45914 6.87519 4.19423L7.88306 6.71391C7.92582 6.8208 7.9472 6.87424 7.96224 6.92937C7.9756 6.97833 7.98521 7.02825 7.99099 7.07868C7.9975 7.13544 7.9975 7.19301 7.9975 7.30813Z" stroke="black" stroke-linecap="round" stroke-linejoin="round"/>
</svg>
