<svg width="32" height="29" viewBox="0 0 32 29" fill="none" xmlns="http://www.w3.org/2000/svg">
<path d="M2.66663 16.5L12.3089 21.3211C12.44 21.3867 12.5056 21.4195 12.5744 21.4324C12.6354 21.4438 12.6979 21.4438 12.7588 21.4324C12.8276 21.4195 12.8932 21.3867 13.0244 21.3211L22.6666 16.5M2.66663 21.5L12.3089 26.3211C12.44 26.3867 12.5056 26.4195 12.5744 26.4324C12.6354 26.4438 12.6979 26.4438 12.7588 26.4324C12.8276 26.4195 12.8932 26.3867 13.0244 26.3211L22.6666 21.5M2.66663 11.5L12.3089 6.67889C12.44 6.6133 12.5056 6.5805 12.5744 6.5676C12.6354 6.55616 12.6979 6.55616 12.7588 6.5676C12.8276 6.5805 12.8932 6.6133 13.0244 6.67889L22.6666 11.5L13.0244 16.3211C12.8932 16.3867 12.8276 16.4195 12.7588 16.4324C12.6979 16.4438 12.6354 16.4438 12.5744 16.4324C12.5056 16.4195 12.44 16.3867 12.3089 16.3211L2.66663 11.5Z" stroke="#376DC3" stroke-linecap="round" stroke-linejoin="round"/>
<path d="M29 2.83333L27.6666 2.33333L29 1.83283L29.5 0.5L30.0004 1.83283L31.3333 2.33333L30.0004 2.83333L29.5 4.16666L29 2.83333ZM26.3333 5.5L24.6666 4.83333L26.3333 4.16666L27 2.5L27.6666 4.16666L29.3333 4.83333L27.6666 5.5L27 7.16666L26.3333 5.5Z" fill="#376DC3"/>
</svg>
