<svg width="494" height="494" viewBox="0 0 494 494" fill="none" xmlns="http://www.w3.org/2000/svg">
<mask id="mask0_2445_2586" style="mask-type:alpha" maskUnits="userSpaceOnUse" x="0" y="0" width="494" height="494">
<circle cx="247" cy="247" r="247" fill="#FFC947"/>
</mask>
<g mask="url(#mask0_2445_2586)">
<g opacity="0.2">
<circle cx="205.132" cy="188.132" r="265.1" stroke="white" stroke-width="4.06584"/>
<path d="M204.873 -35.123C328.317 -35.1228 428.384 64.8341 428.384 188.133C428.384 311.432 328.317 411.389 204.873 411.39C81.4289 411.39 -18.6387 311.432 -18.6387 188.133C-18.6385 64.834 81.429 -35.123 204.873 -35.123Z" stroke="white" stroke-width="4.06584"/>
<path d="M204.877 0.595703C308.307 0.595703 392.158 84.5557 392.158 188.132C392.158 291.708 308.307 375.669 204.877 375.669C101.447 375.669 17.5957 291.708 17.5957 188.132C17.5959 84.5557 101.447 0.595728 204.877 0.595703Z" stroke="white" stroke-width="4.06584"/>
<circle cx="205.134" cy="188.642" r="158.961" stroke="white" stroke-width="4.06584"/>
</g>
</g>
</svg>
